<svg xmlns="http://www.w3.org/2000/svg" xmlns:xlink="http://www.w3.org/1999/xlink" viewBox="0 0 25.27 25.44"><defs><style>.cls-1{isolation:isolate;}.cls-2{fill:#4bc1f0;}.cls-3{fill:#388591;}.cls-10,.cls-11,.cls-13,.cls-4,.cls-9{mix-blend-mode:multiply;}.cls-4{fill:url(#radial-gradient);}.cls-5{fill:#0abab5;}.cls-6,.cls-8{opacity:0.32;}.cls-7,.cls-8{fill:#fff;}.cls-10,.cls-11,.cls-12,.cls-13,.cls-9{fill:#37a6de;}.cls-9{opacity:0.28;}.cls-10{opacity:0.47;}.cls-13{opacity:0.53;}.cls-14{fill:#3d3d3c;}.cls-15{fill:#ebebeb;}.cls-16{fill:#053f55;}.cls-17{opacity:0.42;}</style><radialGradient id="radial-gradient" cx="12.64" cy="12.64" r="7.11" gradientUnits="userSpaceOnUse"><stop offset="0" stop-color="#fff"/><stop offset="0.35" stop-color="#fff"/><stop offset="0.41" stop-color="#fff"/><stop offset="0.54" stop-color="#fdfdfd"/><stop offset="0.59" stop-color="#f6f6f6"/><stop offset="0.62" stop-color="#eaeaea"/><stop offset="0.65" stop-color="#d9d9d9"/><stop offset="0.67" stop-color="#c3c3c3"/><stop offset="0.7" stop-color="#a7a7a7"/><stop offset="0.72" stop-color="#868686"/><stop offset="0.73" stop-color="#606060"/><stop offset="0.75" stop-color="#353535"/><stop offset="0.77" stop-color="#060606"/><stop offset="0.77"/><stop offset="0.8" stop-color="#3c3c3c"/><stop offset="0.83" stop-color="#6f6f6f"/><stop offset="0.85" stop-color="#9b9b9b"/><stop offset="0.88" stop-color="#bfbfbf"/><stop offset="0.91" stop-color="#dbdbdb"/><stop offset="0.94" stop-color="#efefef"/><stop offset="0.97" stop-color="#fbfbfb"/><stop offset="1" stop-color="#fff"/></radialGradient></defs><title>Ресурс 13</title><g class="cls-1"><g id="Слой_2" data-name="Слой 2"><g id="Слой_1-2" data-name="Слой 1"><path class="cls-2" d="M12.76,18.35h-.4A5.61,5.61,0,0,1,10.65,18l-.27-.11-.1,0,.3-.66.09,0,.23.09a4.89,4.89,0,0,0,1.49.3h.35Z"/><path class="cls-2" d="M10,17.7h0l-.07,0-.25-.15A5.65,5.65,0,0,1,8.93,17a5.5,5.5,0,0,1-.62-.62l-.18-.22-.07-.09L9,15.38l.05.07.15.18a4.36,4.36,0,0,0,.49.5,4.51,4.51,0,0,0,.56.41l.2.12.06,0h0Z"/><path class="cls-3" d="M13,7.06h.15l.32,0,.32.05.14,0-.16.71-.13,0-.28,0-.28,0h-.13Z"/><path class="cls-3" d="M7,12.7v-.47c0-.12,0-.23,0-.32l0-.11v0l.72.12V12c0,.08,0,.18,0,.28v.41Z"/><path class="cls-2" d="M7,13.64v0l0-.11c0-.09,0-.2,0-.32V12.7h.73v.41c0,.1,0,.2,0,.28v.13Z"/><path class="cls-3" d="M11.82,7.1s.23,0,.47,0h.47l0,.73h-.41l-.41,0Z"/><path class="cls-3" d="M10.72,7.37l.14,0,.31-.09.32-.07.15,0,.13.71-.13,0-.28.06L11.09,8l-.12,0Z"/><path class="cls-2" d="M7.86,9.66l.08-.13c.06-.08.13-.19.24-.32A5.62,5.62,0,0,1,10,7.67l.36-.17.14-.06L11,8.63a3.69,3.69,0,0,0-.39.18A4.34,4.34,0,0,0,9.18,10c-.08.1-.14.19-.18.25l-.06.1Z"/><path class="cls-3" d="M17.44,15.66l-.12.19-.15.21-.21.27a5.75,5.75,0,0,1-1.38,1.19,5.68,5.68,0,0,1-1.7.69,5.48,5.48,0,0,1-.6.1l-.17,0H13L13,17.61h.2a4.75,4.75,0,0,0,.52-.09,5,5,0,0,0,1.48-.6,5,5,0,0,0,1.21-1l.19-.23.13-.19.11-.17Z"/><path class="cls-2" d="M17.81,15l-.1.22-.11.21-1.36-.73.08-.15.07-.16Z"/><path class="cls-2" d="M14.06,7.23l.14,0,.1,0h0l-.47,1.47h0l-.07,0-.1,0Z"/><path class="cls-3" d="M18.27,12.65s0,0,0,.09V13c0,.1,0,.21,0,.33s0,.25-.05.38a5.84,5.84,0,0,1-.17.7l-.08.22,0,.08-.68-.26,0-.07.07-.19a5.09,5.09,0,0,0,.15-.61c0-.11,0-.22,0-.33s0-.2,0-.29v-.2s0-.08,0-.08Z"/><path class="cls-3" d="M7.1,11.48l0-.08s0-.12,0-.2a5.41,5.41,0,0,1,.2-.59,5.48,5.48,0,0,1,.26-.56l.1-.18,0-.07.62.37,0,.06-.09.16a4.76,4.76,0,0,0-.22.49,4.67,4.67,0,0,0-.17.51c0,.07,0,.13,0,.17l0,.07Z"/><path class="cls-3" d="M7.88,15.78l0-.08-.12-.2a5.63,5.63,0,0,1-.32-.64,5.7,5.7,0,0,1-.23-.68c0-.09,0-.17-.06-.23l0-.09.71-.15,0,.08s0,.12,0,.2a5,5,0,0,0,.2.59,4.89,4.89,0,0,0,.28.56l.11.18,0,.07Z"/><path class="cls-4" d="M12.64,5.53a7.11,7.11,0,1,0,7.11,7.11A7.11,7.11,0,0,0,12.64,5.53Zm0,10.82a3.71,3.71,0,1,1,3.71-3.71A3.71,3.71,0,0,1,12.64,16.35Z"/><path class="cls-5" d="M12.64,5.73a6.91,6.91,0,1,0,6.91,6.91A6.91,6.91,0,0,0,12.64,5.73Zm0,12.49a5.59,5.59,0,1,1,5.59-5.59A5.59,5.59,0,0,1,12.64,18.23Z"/><g class="cls-6"><line class="cls-7" x1="17.07" y1="17.56" x2="17.06" y2="15.4"/><polygon class="cls-7" points="17.03 15.4 17.08 15.4 17.09 17.56 17.04 17.56 17.03 15.4"/></g><g class="cls-6"><path class="cls-7" d="M17.07,15.4a.32.32,0,1,0-.32-.32A.32.32,0,0,0,17.07,15.4Zm0-.08a.25.25,0,1,1,.25-.25A.25.25,0,0,1,17.07,15.33Z"/></g><circle class="cls-8" cx="19.52" cy="17.26" r="0.19" transform="translate(-0.04 0.04) rotate(-0.12)"/><circle class="cls-8" cx="17.06" cy="17.57" r="0.19" transform="translate(-0.04 0.04) rotate(-0.12)"/><circle class="cls-8" cx="20.88" cy="8.95" r="0.19" transform="translate(-0.02 0.04) rotate(-0.12)"/><circle class="cls-8" cx="21.84" cy="8.95" r="0.19" transform="translate(-0.02 0.05) rotate(-0.12)"/><path class="cls-8" d="M21.8,12.55h2.72a.27.27,0,0,1,0-.08h-2.7L18.95,9.29l-.06.05,2.89,3.2Z"/><g class="cls-6"><path class="cls-7" d="M18.69,9.42a.32.32,0,1,0-.32-.32A.32.32,0,0,0,18.69,9.42Zm0-.57a.25.25,0,1,1-.25.25A.25.25,0,0,1,18.7,8.86Z"/></g><circle class="cls-8" cx="16.52" cy="6.65" r="0.19" transform="translate(9.84 23.15) rotate(-89.88)"/><circle class="cls-8" cx="20.76" cy="11.36" r="0.19" transform="translate(9.35 32.09) rotate(-89.88)"/><g class="cls-6"><line class="cls-7" x1="8.47" y1="9.27" x2="8.49" y2="11.43"/><polygon class="cls-7" points="8.51 11.43 8.46 11.43 8.45 9.27 8.5 9.27 8.51 11.43"/></g><g class="cls-6"><path class="cls-7" d="M8.48,11.42a.32.32,0,1,0,.32.32A.32.32,0,0,0,8.48,11.42Zm0,.08a.25.25,0,1,1-.25.25A.25.25,0,0,1,8.48,11.5Z"/></g><g class="cls-6"><path class="cls-7" d="M11.9,17.55a.32.32,0,1,0,.32.32A.32.32,0,0,0,11.9,17.55Zm0,.08a.25.25,0,1,1-.25.25A.25.25,0,0,1,11.9,17.62Z"/></g><circle class="cls-8" cx="6.02" cy="9.57" r="0.19" transform="translate(-0.02 0.01) rotate(-0.12)"/><circle class="cls-8" cx="8.48" cy="9.26" r="0.19" transform="translate(-0.02 0.02) rotate(-0.12)"/><circle class="cls-8" cx="4.67" cy="17.88" r="0.19" transform="translate(-0.04 0.01) rotate(-0.12)"/><circle class="cls-8" cx="3.7" cy="17.88" r="0.19" transform="translate(-0.04 0.01) rotate(-0.12)"/><g class="cls-6"><line class="cls-7" x1="9.32" y1="17.73" x2="7.16" y2="17.72"/><polygon class="cls-7" points="7.16 17.69 7.16 17.74 9.32 17.75 9.32 17.7 7.16 17.69"/></g><g class="cls-6"><path class="cls-7" d="M6.85,17.4a.32.32,0,1,0,.32.32A.32.32,0,0,0,6.85,17.4Zm0,.57a.25.25,0,1,1,.25-.25A.25.25,0,0,1,6.85,18Z"/></g><circle class="cls-8" cx="9.03" cy="20.18" r="0.19" transform="translate(-11.17 29.16) rotate(-89.88)"/><circle class="cls-8" cx="9.33" cy="17.72" r="0.19" transform="translate(-8.41 27.02) rotate(-89.88)"/><circle class="cls-8" cx="4.79" cy="15.47" r="0.19" transform="translate(-10.69 20.22) rotate(-89.88)"/><path class="cls-9" d="M12.63,20.51h0A7.81,7.81,0,0,1,8,19l.45-.63a7,7,0,0,0,4.14,1.34h0a7.18,7.18,0,0,0,.8,0l.09.77A8,8,0,0,1,12.63,20.51Z"/><path class="cls-9" d="M6.95,18.08a7.85,7.85,0,0,1-2.19-5.23l.77,0a7.08,7.08,0,0,0,2,4.71Z"/><path class="cls-9" d="M5.53,12.63H4.76a7.86,7.86,0,0,1,2-5.28l.57.52A7.08,7.08,0,0,0,5.53,12.63Z"/><path class="cls-10" d="M10.89,20.65a8.2,8.2,0,0,1-6.46-8c0-.25,0-.51,0-.76L6.05,12c0,.2,0,.41,0,.61a6.6,6.6,0,0,0,5.2,6.45Z"/><path class="cls-9" d="M6.72,9.68,5.29,9A8.21,8.21,0,0,1,9.71,5l.57,1.49a6.6,6.6,0,0,0-1.66.93A6.53,6.53,0,0,0,6.72,9.68Z"/><path class="cls-9" d="M11.7,20.33a7.76,7.76,0,0,1-1.39-15.1l.25.79A6.93,6.93,0,0,0,11.8,19.51Z"/><path class="cls-9" d="M12.63,20v-.28A7.13,7.13,0,0,0,19.75,13H20a7.47,7.47,0,0,1-1.71,4.35,7.33,7.33,0,0,1-4.07,2.48A7.42,7.42,0,0,1,12.63,20Z"/><path class="cls-9" d="M11.24,19.9a7.4,7.4,0,0,1-.6-14.4l.07.27a7.13,7.13,0,0,0,.58,13.86Z"/><path class="cls-11" d="M12.64,20.34h0a7.78,7.78,0,0,1-1.06-.07,7.67,7.67,0,0,1-2.47-.78l.06-.12a7.53,7.53,0,0,0,2.43.77,7.56,7.56,0,0,0,7.27-3.21L19,17A7.72,7.72,0,0,1,12.64,20.34Z"/><path class="cls-11" d="M6.91,17.8a7.7,7.7,0,0,1-2-5.16A7.78,7.78,0,0,1,5,11.58a7.72,7.72,0,0,1,7.71-6.65v.14h-.08A7.57,7.57,0,0,0,7,17.71Z"/><path class="cls-12" d="M13.09,19.76v-.06a7,7,0,0,0,4.81-2.34l0,0A7.1,7.1,0,0,1,13.09,19.76Z"/><path class="cls-12" d="M11.71,19.72a7.06,7.06,0,0,1-2.63-.89A7.16,7.16,0,0,1,7,17.05l0,0a7.05,7.05,0,0,0,4.65,2.65Z"/><path class="cls-12" d="M18.77,16.29l0,0A7.09,7.09,0,0,0,19.52,11h.05a7.14,7.14,0,0,1-.81,5.33Z"/><path class="cls-12" d="M6.28,15.89A7.13,7.13,0,0,1,7.53,7.64l0,0a7.08,7.08,0,0,0-1.24,8.19Z"/><path class="cls-12" d="M19.08,9.68A7.17,7.17,0,0,0,15.17,6l0-.05a7.18,7.18,0,0,1,3.94,3.69Z"/><path class="cls-12" d="M8.62,6.79l0,0a7.09,7.09,0,0,1,4-1.26,7.19,7.19,0,0,1,1.22.1v.05a7.13,7.13,0,0,0-1.21-.1A7,7,0,0,0,8.62,6.79Z"/><polygon class="cls-12" points="1.68 16.84 1.67 16.81 9.6 13.78 9.6 13.79 1.68 16.84"/><polygon class="cls-12" points="9.39 12.63 0.9 12.63 0.9 12.59 9.39 12.62 9.39 12.63"/><path class="cls-13" d="M11.6,21.53a9,9,0,0,1-4-1.5,8.86,8.86,0,0,1-2.7-2.92L5,17a8.69,8.69,0,0,0,2.65,2.86,8.8,8.8,0,0,0,3.95,1.47Z"/><path class="cls-13" d="M4.28,15.86a9,9,0,0,1,.78-8l.14.09a8.8,8.8,0,0,0-.77,7.86Z"/><path class="cls-13" d="M20.72,9.17a8.79,8.79,0,0,0-6-5.09l0-.16a9,9,0,0,1,6.15,5.19Z"/><path class="cls-14" d="M17.15,15.87h0l.13-.19h0l.6.39h0l-.15.22h0Zm.16-.18-.11.17.54.38.13-.19Z"/><path class="cls-14" d="M17.37,15.53h0l.12-.2h0l.63.35h0l-.13.23h0Zm.15-.19-.1.18.56.34.12-.2Z"/><path class="cls-14" d="M17.57,15.17h0l.1-.21h0l.65.3h0l-.12.24h0Zm.13-.2-.09.18.59.3.1-.21Z"/><path class="cls-14" d="M17.75,14.8h0l.09-.22h0l.67.25h0l-.1.25h0Zm.12-.21-.08.19.61.25.09-.22Z"/><path class="cls-14" d="M17.89,14.41h0l.07-.22v0l.69.2v0l-.08.25h0Zm.1-.22-.06.2.62.21.07-.22Z"/><path class="cls-14" d="M18,14v0l.05-.23v0l.7.15v0l-.06.26v0Zm.08-.22,0,.2.64.16.05-.23Z"/><path class="cls-14" d="M18.1,13.62v0c0-.08,0-.15,0-.23v0l.71.1v0c0,.09,0,.18,0,.26v0Zm.07-.23,0,.2.65.12,0-.23Z"/><path class="cls-14" d="M18.16,13.21v0c0-.08,0-.16,0-.23v0l.72,0v0c0,.09,0,.18,0,.26v0Zm.05-.23c0,.07,0,.14,0,.2l.65.07c0-.08,0-.15,0-.23Z"/><path class="cls-14" d="M18.19,12.8v0c0-.08,0-.16,0-.23v0h.72v0c0,.09,0,.18,0,.27v0Zm0-.24c0,.07,0,.14,0,.2l.66,0c0-.08,0-.16,0-.23Z"/><path class="cls-14" d="M18.18,12.39v0c0-.08,0-.16,0-.23v0l.72-.06v0c0,.09,0,.18,0,.26v0Zm0-.24c0,.07,0,.14,0,.2l.66,0c0-.08,0-.15,0-.23Z"/><path class="cls-5" d="M3.24,11.63l-.77-.08c0-.1,0-.19,0-.29A10.23,10.23,0,0,1,12,2.44l0,.77a9.47,9.47,0,0,0-8.77,8.16C3.26,11.45,3.25,11.54,3.24,11.63Z"/><path class="cls-14" d="M17.86,16.38h0l.15-.22v0l.7.45v0l-.17.25h0Zm.18-.2-.13.2.62.44.15-.22Z"/><path class="cls-14" d="M18.12,16v0l.14-.24v0l.73.4v0l-.15.27v0Zm.17-.22-.12.21.65.39.13-.23Z"/><path class="cls-14" d="M18.35,15.57v0l.12-.24v0l.76.35v0l-.13.28v0Zm.15-.23-.1.21.68.34.12-.24Z"/><path class="cls-14" d="M18.55,15.14v0l.1-.25v0l.78.29v0l-.11.28v0Zm.13-.24-.09.22.7.29.1-.25Z"/><path class="cls-14" d="M18.72,14.69v0l.08-.26v0l.8.23v0l-.09.29v0Zm.12-.25-.07.23.72.24.08-.26Z"/><path class="cls-14" d="M18.86,14.24v0l.06-.26v0l.81.17v0l-.07.3v0ZM19,14l-.05.23.74.19.06-.26Z"/><path class="cls-14" d="M19,13.77v0c0-.09,0-.18,0-.27v0l.82.11v0c0,.1,0,.2,0,.3v0Zm.08-.26,0,.23.75.13c0-.09,0-.18,0-.27Z"/><path class="cls-14" d="M19,13.3v0c0-.09,0-.18,0-.27v0l.83.05v0c0,.1,0,.2,0,.31v0Zm.06-.27c0,.08,0,.16,0,.24l.76.08c0-.09,0-.18,0-.27Z"/><path class="cls-14" d="M19.06,12.83v0c0-.09,0-.18,0-.27v0h.83v0c0,.1,0,.21,0,.31v0Zm0-.27c0,.08,0,.16,0,.24l.76,0c0-.09,0-.18,0-.27Z"/><path class="cls-14" d="M19.06,12.35v0c0-.09,0-.18,0-.27v0l.83-.07v0c0,.1,0,.2,0,.31v0Zm0-.27c0,.08,0,.16,0,.24l.76,0c0-.09,0-.18,0-.27Z"/><path class="cls-15" d="M17,7.89l.54-.59.22.21-.56.56Z"/><path class="cls-15" d="M17.33,8.22l.58-.55.2.23-.6.52Z"/><path class="cls-15" d="M17.65,8.58l.62-.5.19.24-.64.47Z"/><path class="cls-15" d="M19,11.86c0-.09,0-.18,0-.27l.79-.13c0,.1,0,.2,0,.3Z"/><path class="cls-15" d="M17.93,9l.65-.45.17.26-.67.43Z"/><path class="cls-15" d="M19,11.39l-.06-.27.77-.19c0,.1,0,.2.07.3Z"/><path class="cls-15" d="M18.19,9.36l.69-.4.15.27-.7.37Z"/><path class="cls-15" d="M18.85,10.92l-.08-.26.76-.24.09.29Z"/><path class="cls-15" d="M18.41,9.78l.71-.35.13.28-.73.32Z"/><path class="cls-15" d="M18.71,10.47l-.1-.25.74-.3.11.29Z"/><path class="cls-9" d="M14.57,23.08a10.6,10.6,0,0,1-7.52-1.4l.55-.89a9.56,9.56,0,0,0,6.78,1.26Z"/><path class="cls-5" d="M20.39,20.54A11.07,11.07,0,0,1,6.56,21.9c-.28-.19-.56-.39-.83-.6l1.34-1.69c.21.17.44.33.67.49A8.91,8.91,0,0,0,18.88,19Z"/><path class="cls-9" d="M20.63,19.39A10.47,10.47,0,0,1,2.56,9.78l1.07.31a9.35,9.35,0,0,0,16.14,8.59Z"/><path class="cls-9" d="M19.8,19.59a10,10,0,0,1-16.7-10l.35.11a9.62,9.62,0,0,0,16.07,9.62Z"/><path class="cls-11" d="M18,3.75a10.39,10.39,0,0,1,4.57,5.91,10.5,10.5,0,0,1,.31,1.4,10.42,10.42,0,0,1-7.41,11.58l-.05-.18.1,0A10.22,10.22,0,0,0,17.94,3.9Z"/><path class="cls-12" d="M19.95,18.92a9.54,9.54,0,0,1-3,2.31,9.67,9.67,0,0,1-3.53,1v-.07a9.52,9.52,0,0,0,6.43-3.29Z"/><polygon class="cls-14" points="9.84 25.44 9.81 25.43 11.67 16.91 11.69 16.91 9.84 25.44"/><polygon class="cls-7" points="2.05 0.85 2.08 0.81 9.73 9.35 9.71 9.37 2.05 0.85"/><path class="cls-16" d="M21.91,20.39a12.1,12.1,0,0,1-4.67,3.43,12,12,0,0,1-5.3.89v-.22a11.74,11.74,0,0,0,5.2-.87,11.87,11.87,0,0,0,4.59-3.36Z"/><path class="cls-5" d="M13.14,22.36v-.08a9.64,9.64,0,0,0,4.71-1.51l0,.06A9.72,9.72,0,0,1,13.14,22.36Zm-1.26,0A9.78,9.78,0,0,1,7.17,20.7l0-.06a9.71,9.71,0,0,0,4.67,1.63Zm7-2.25,0-.06a9.65,9.65,0,0,0,2.85-4l.07,0A9.72,9.72,0,0,1,18.9,20.1ZM6.18,19.93a9.78,9.78,0,0,1-2.76-4.15l.07,0a9.7,9.7,0,0,0,2.74,4.12Zm16-5.11-.07,0a9.77,9.77,0,0,0,.25-2.18,9.66,9.66,0,0,0-.4-2.76l.07,0a9.74,9.74,0,0,1,.41,2.79A9.84,9.84,0,0,1,22.13,14.82Zm-19-.25a9.81,9.81,0,0,1,.29-5l.07,0a9.73,9.73,0,0,0-.29,4.94ZM21.46,8.69a9.7,9.7,0,0,0-3.11-3.85l0-.06a9.78,9.78,0,0,1,3.13,3.88ZM3.91,8.46l-.07,0A9.63,9.63,0,0,1,6.66,4.93,9.73,9.73,0,0,1,11.25,3v.07A9.65,9.65,0,0,0,6.71,5,9.55,9.55,0,0,0,3.91,8.46ZM17.3,4.17A9.74,9.74,0,0,0,12.62,3h-.12V2.89A9.82,9.82,0,0,1,17.34,4.1Z"/><path class="cls-15" d="M21.51,17.7s0,.07,0,.13v.4l.24-.13.12-.07L22,18l-.2-.11v0l0,0,0,0,.09-.16.09-.17.09-.17c.11-.23.23-.48.33-.75a10.29,10.29,0,0,0,.53-1.76l0-.24,0-.25,0-.12,0-.13,0-.25c0-.17,0-.34,0-.52s0-.18,0-.26v-.27A10.71,10.71,0,0,0,23,10.53a10.42,10.42,0,0,0-.69-2.15A10.58,10.58,0,0,0,18,3.58a10.18,10.18,0,0,0-1.66-.8l-.1,0-.1,0L16,2.64l-.19-.06-.19-.05-.18-.05-.18,0-.35-.08-.33-.06-.31-.05-.55-.07-.44,0h-.6v.08h.6l.44,0,.54.07.31.05.33.06.35.08.18,0,.18.05.19.05.19.06.19.07.1,0,.1,0A10.1,10.1,0,0,1,18,3.65a10.51,10.51,0,0,1,4.23,4.76,10.34,10.34,0,0,1,.69,2.14,10.63,10.63,0,0,1,.21,2.17V13c0,.09,0,.17,0,.26s0,.34,0,.51L23,14l0,.12,0,.12,0,.24,0,.24a10.21,10.21,0,0,1-.52,1.75c-.1.26-.22.51-.33.74l-.09.17-.09.16-.09.16,0,0,0,0v0Z"/><g class="cls-17"><path class="cls-7" d="M12.63,25.27A12.63,12.63,0,1,1,25.27,12.63,12.65,12.65,0,0,1,12.63,25.27Zm0-25.18A12.55,12.55,0,1,0,25.18,12.63,12.56,12.56,0,0,0,12.63.08Z"/></g><path class="cls-7" d="M12.63,21.07a8.44,8.44,0,1,1,8.44-8.44A8.45,8.45,0,0,1,12.63,21.07Zm0-16.79A8.35,8.35,0,1,0,21,12.63,8.36,8.36,0,0,0,12.63,4.28Z"/><circle class="cls-14" cx="15.17" cy="3.74" r="0.27"/><path class="cls-14" d="M9.09,4.4l.08-.11.08-.1L9.41,4l-.27,0L9,3.92H8.87L9,4.12H8.91l-.1,0-.19.09-.19.1-.19.1-.1.05L8,4.59l-.2.11-.19.12-.1.06-.1.07-.19.13-.19.14L7,5.3l-.09.08-.19.15-.19.16-.18.17L6.13,6,6,6.21l-.17.19-.09.1-.08.1-.09.1,0,0,0,.05L5.27,7l-.16.21L5,7.43l-.15.23a8.9,8.9,0,0,0-.54,1c-.08.17-.16.34-.23.52l-.1.27-.1.27A9.23,9.23,0,0,0,4.4,16.9l.07.14.08.14.16.28.18.28,0,.07,0,.07.1.13.1.13,0,0,0,0,.05.06.2.26c.14.17.29.34.44.49s.31.31.47.47.33.29.51.43.36.27.54.4.37.25.57.35.39.21.59.32.41.19.62.27.42.15.63.23l.32.09.08,0,.08,0,.16,0,.16,0,.08,0h.08l.33.06h.17l.17,0,.17,0h.17l.34,0h1l.33,0,.17,0,.17,0,.17,0,.16,0,.33-.06c.22-.05.44-.1.65-.16s.42-.13.63-.2l.31-.12.15-.06.15-.07.15-.07.08,0,.07,0,.29-.15.14-.08.14-.08.14-.08.14-.09.14-.09.14-.09.27-.19.07,0,.06-.05.13-.1.13-.1.06-.05.06-.05.24-.21.23-.22a9,9,0,0,0,.85-.95l.1-.12.09-.13.18-.26.17-.26.08-.13.08-.13a9.14,9.14,0,0,0,1.17-3.39l0-.29c0-.1,0-.19,0-.29v-.57s0-.09,0-.14v-.14c0-.09,0-.19,0-.28s0-.37,0-.55a9.26,9.26,0,0,0-.46-2l-.09-.24,0-.12,0-.11-.1-.23L21,8.68c-.07-.15-.14-.29-.21-.43l-.06-.1L20.69,8l-.06-.1-.06-.1a9.53,9.53,0,0,0-1-1.4,9.23,9.23,0,0,0-1.11-1.05,9.37,9.37,0,0,0-1.07-.74l-.13-.07-.06,0-.06,0-.24-.13-.23-.11-.11-.05-.11,0L16,4l-.33-.12-.26-.09-.19-.06-.16,0,0,.07.16,0,.19.06.26.09.33.12.39.16.11,0,.11.05.23.11.24.13.06,0,.06,0,.12.07a9.29,9.29,0,0,1,1.06.73,9.16,9.16,0,0,1,1.1,1,9.46,9.46,0,0,1,1,1.39l.06.1.06.1.06.1.06.1c.07.14.15.28.21.42l.1.22.09.23,0,.11,0,.12.09.23a9.18,9.18,0,0,1,.45,2c0,.18,0,.36,0,.54s0,.18,0,.28v.14s0,.09,0,.14v.56c0,.09,0,.19,0,.28l0,.28a9.06,9.06,0,0,1-1.16,3.36l-.08.13-.08.13-.17.26-.18.25-.09.13-.1.12a9,9,0,0,1-.84.94l-.23.22-.24.21-.06.05-.06.05-.13.1-.13.1-.06,0-.07,0-.26.19-.14.09-.14.09-.14.09-.14.08-.14.08-.14.08-.29.15-.07,0-.07,0-.15.07-.15.07-.15.06-.31.12c-.21.07-.41.15-.63.2s-.43.11-.64.16l-.33.06-.16,0-.16,0-.16,0-.17,0-.33,0h-1l-.33,0h-.17l-.17,0-.17,0h-.17l-.33-.06h-.08l-.08,0-.16,0-.16,0-.08,0-.08,0-.32-.09c-.21-.07-.42-.14-.63-.23s-.41-.17-.61-.27-.4-.2-.59-.31-.38-.23-.57-.35S7.13,20,7,19.86s-.34-.28-.51-.43S6.13,19.14,6,19s-.29-.32-.44-.49l-.2-.26-.05-.06,0,0,0,0L5.15,18l-.09-.13,0-.07,0-.07-.18-.27-.16-.28L4.55,17l-.07-.14a9.15,9.15,0,0,1-.56-7.15L4,9.44l.1-.27c.07-.17.15-.35.23-.51a8.82,8.82,0,0,1,.53-1L5,7.48l.15-.22L5.34,7l.16-.21,0-.05,0,0,.08-.1.08-.1.09-.09L6,6.26l.18-.18.18-.17.18-.17.18-.16.19-.15L7,5.36l.1-.07.19-.14L7.49,5l.1-.06.1-.06.19-.12.19-.11.1-.06.1-.05.19-.1.19-.09.19-.09.1,0H9Z"/><path class="cls-16" d="M20.81,7.24l0,0-.24-.34,0,0,1-.75,0,0,.27.38,0,0Zm-.19-.37.21.3,1-.64-.23-.34Z"/><path class="cls-16" d="M20.39,6.65l0,0-.26-.32,0,0,1-.82,0,0,.29.36,0,0Zm-.22-.36.23.28.91-.71-.26-.32Z"/><path class="cls-16" d="M19.92,6.09l0,0-.28-.3,0,0,.9-.89,0,0,.32.34,0,0Zm-.24-.34.25.26.86-.78-.28-.3Z"/><path class="cls-16" d="M19.42,5.57l0,0-.31-.28,0,0,.84-1,0,0,.34.32,0,0Zm-.27-.32.27.24.8-.84-.3-.28Z"/><path class="cls-16" d="M18.88,5.09l0,0-.32-.26,0,0,.77-1,0,0,.37.29,0,0Zm-.29-.3.28.22.74-.89-.32-.25Z"/><path class="cls-16" d="M18.3,4.65l0,0-.34-.23h0l.69-1.06h0L19,3.6l0,0ZM18,4.37l.3.2L19,3.63l-.34-.23Z"/><path class="cls-16" d="M17.7,4.25h0L17.32,4h0L17.9,2.9h0l.41.23h0ZM17.37,4l.31.18.6-1L17.92,3Z"/><path class="cls-16" d="M17.07,3.9h0l-.37-.18h0l.52-1.15h0l.42.2h0Zm-.35-.23.33.16.52-1-.37-.18Z"/><path class="cls-16" d="M16.41,3.59h0L16,3.43h0l.44-1.19h0l.44.17h0ZM16,3.39l.34.13.44-1.07-.38-.15Z"/><path class="cls-16" d="M15.73,3.34h0l-.4-.12h0L15.63,2h0l.45.14h0Zm-.38-.18.34.11.36-1.1L15.67,2Z"/><path class="cls-7" d="M8.26,3.84,7.71,2.75l.42-.2.5,1.11Z"/><path class="cls-7" d="M8.91,3.54,8.45,2.42l.43-.17L9.3,3.39Z"/><path class="cls-7" d="M9.59,3.29,9.22,2.14,9.66,2,10,3.17Z"/><path class="cls-7" d="M15,3.1,14.61,3l.24-1.19.45.1Z"/><path class="cls-7" d="M10.29,3.09,10,1.91l.45-.1L10.7,3Z"/><path class="cls-7" d="M14.31,3l-.41-.06.15-1.2.46.07Z"/><path class="cls-7" d="M11,2.94l-.2-1.2.46-.07.15,1.2Z"/><path class="cls-7" d="M13.59,2.86l-.41,0,.07-1.21.46,0Z"/><path class="cls-7" d="M11.72,2.85l-.11-1.21.46,0,.06,1.21Z"/><path class="cls-7" d="M12.86,2.81h-.42l0-1.21h.47Z"/><path class="cls-15" d="M10.45,22.18h0l.41.08h0l-.23,1.25h0l-.46-.09h0Zm.4.14-.35-.07-.25,1.13.4.08Z"/><path class="cls-15" d="M11.16,22.31h0l.41.05h0l-.13,1.26h0L11,23.57h0Zm.4.11-.36,0L11,23.52l.41.05Z"/><path class="cls-15" d="M11.88,22.4h0l.41,0h0l0,1.27h0l-.47,0h0Zm.41.08-.36,0-.09,1.15.41,0Z"/><path class="cls-15" d="M12.6,22.42h.47l.05,1.27H12.6Zm.42,0h-.36v1.16h.41Z"/><path class="cls-15" d="M13.33,22.4h0l.41,0h0l.15,1.26h0l-.47,0h0Zm.42,0-.36,0,.08,1.15.41,0Z"/><path class="cls-15" d="M14,22.32h0l.41-.07h0l.24,1.25h0l-.46.08h0Zm.42,0-.36.06.17,1.15.4-.07Z"/><path class="cls-15" d="M14.76,22.19h0l.4-.1h0l.33,1.22h0l-.45.11h0Zm.42,0-.35.09.25,1.13.4-.1Z"/><path class="cls-15" d="M15.46,22h0l.39-.13h0l.42,1.2h0l-.45.15h0Zm.41-.08-.34.11.34,1.11.39-.13Z"/><path class="cls-15" d="M16.15,21.78h0l.38-.16h0l.51,1.16h0l-.43.18h0Zm.41-.11-.33.14.42,1.08.38-.16Z"/><path class="cls-15" d="M16.82,21.49h0l.37-.19h0l.59,1.12h0l-.42.21h0Zm.4-.14-.32.16.5,1,.37-.18Z"/><path class="cls-15" d="M21.87,16l1.14.41-.17.43-1.12-.46Z"/><path class="cls-15" d="M21.6,16.64l1.11.49-.2.42L21.43,17Z"/><path class="cls-15" d="M21.28,17.29l1.07.57-.23.41-1-.62Z"/><path class="cls-15" d="M17.5,21.17l.36-.21.64,1-.4.24Z"/><path class="cls-15" d="M20.92,17.92l1,.65-.26.39-1-.7Z"/><path class="cls-15" d="M18.11,20.79l.34-.24.72,1-.38.27Z"/><path class="cls-15" d="M20.5,18.51l1,.73-.29.37-.94-.77Z"/><path class="cls-15" d="M18.7,20.36,19,20.1l.79.92-.36.3Z"/><path class="cls-15" d="M20,19.08l.91.8-.31.34-.88-.83Z"/><path class="cls-15" d="M19.25,19.89l.3-.29.85.86-.34.32Z"/><path class="cls-12" d="M7.93,13.67v0l.12,0h0Z"/><path class="cls-15" d="M8.95,15.29l.12.15h0l.41-.32h0L9.37,15h0l-.42.3ZM9.36,15l.09.12-.37.29L9,15.28Z"/><path class="cls-15" d="M9.15,15.55l.13.14h0l.38-.35h0l-.11-.13h0l-.4.34Zm.39-.31.1.11-.35.32-.11-.13Z"/><path class="cls-15" d="M9.38,15.8l.14.13h0l.36-.38h0l-.12-.12h0l-.37.36Zm.36-.34.11.1-.33.35-.12-.12Z"/><path class="cls-15" d="M9.77,16.16h0l.33-.4h0L10,15.64h0L9.61,16h0Zm.19-.49.11.1-.3.37L9.65,16Z"/><path class="cls-15" d="M10,16.36h0l.3-.43h0l-.14-.1h0l-.32.41h0Zm.16-.5.12.09-.27.39-.14-.1Z"/><path class="cls-15" d="M10.32,16.54h0l.27-.45h0L10.44,16h0l-.28.44h0Zm.12-.51.13.08-.24.41-.14-.09Z"/><path class="cls-15" d="M10.61,16.7h0l.23-.47h0l-.15-.08h0l-.25.46h0Zm.08-.52.13.07-.21.43-.15-.08Z"/><path class="cls-15" d="M10.92,16.84h0l.2-.48h0L11,16.29h0l-.22.47h0Zm0-.52.14.06-.18.44-.15-.07Z"/><path class="cls-15" d="M11.24,17h0l.16-.5h0l-.16-.06h0l-.18.49h0Zm0-.53.14,0-.15.45-.16-.06Z"/><path class="cls-15" d="M11.56,17h0l.12-.51h0l-.16,0h0l-.14.5h0Zm0-.52.14,0-.11.46-.16,0Z"/><path class="cls-15" d="M14.8,16.61l-.24-.44-.15.08.22.45Z"/><path class="cls-15" d="M14.51,16.76l-.21-.45-.16.07.19.46Z"/><path class="cls-15" d="M14.2,16.89,14,16.42l-.16.06.15.47Z"/><path class="cls-15" d="M12,16.61l-.17,0-.1.49.19,0Z"/><path class="cls-15" d="M13.88,17l-.14-.48-.16,0,.12.48Z"/><path class="cls-15" d="M12.27,16.65l-.17,0-.07.49.19,0Z"/><path class="cls-15" d="M13.55,17.07l-.1-.49-.17,0,.08.49Z"/><path class="cls-15" d="M12.56,16.67h-.17l0,.5h.19Z"/><path class="cls-15" d="M13.22,17.13l-.06-.49-.17,0,0,.5Z"/><path class="cls-15" d="M12.89,17.16l0-.5h-.17v.5Z"/><path class="cls-7" d="M19.08,17.25v0l.19-.28v0l.86.56v0l-.21.31v0Zm.23-.25-.16.24.76.54.19-.27Z"/><path class="cls-7" d="M19.4,16.77v0l.17-.29v0l.9.49v0l-.19.33v0Zm.21-.27-.15.25.8.49.17-.29Z"/><path class="cls-7" d="M19.69,16.25v0l.15-.3v0l.93.43v0l-.16.34v0Zm.19-.28-.13.26.84.43.14-.3Z"/><path class="cls-7" d="M19.94,15.72v0l.12-.31v0l1,.36v0l-.14.35v0Zm.17-.3L20,15.7l.86.36.12-.31Z"/><path class="cls-7" d="M20.15,15.17v0l.1-.32v0l1,.29v0l-.11.36v0Zm.14-.31-.09.28.89.3.1-.32Z"/><path class="cls-7" d="M20.31,14.61v0c0-.11.05-.22.08-.33v0l1,.21v0c0,.12-.06.25-.09.37v0Zm.12-.32-.07.28.91.23.08-.32Z"/><path class="cls-7" d="M20.44,14v0c0-.11,0-.22.05-.33v0l1,.14v0c0,.12,0,.25-.06.37v0Zm.1-.33c0,.1,0,.19,0,.29l.92.17c0-.11,0-.22.05-.33Z"/><path class="cls-7" d="M20.52,13.46v0c0-.11,0-.22,0-.33v0l1,.06v0c0,.13,0,.25,0,.38v0Zm.07-.33c0,.1,0,.19,0,.29l.93.1c0-.11,0-.22,0-.33Z"/><path class="cls-7" d="M20.56,12.87v0c0-.11,0-.22,0-.34v0h1v0c0,.13,0,.25,0,.38v0Zm0-.34c0,.1,0,.2,0,.29l.94,0c0-.11,0-.22,0-.33Z"/><path class="cls-7" d="M20.56,12.28v0c0-.11,0-.22,0-.33v0l1-.09v0c0,.13,0,.25,0,.38v0Zm0-.34c0,.1,0,.19,0,.29l.94,0c0-.11,0-.22,0-.33Z"/><path class="cls-7" d="M18,6.78l.66-.72.27.26-.69.7Z"/><path class="cls-7" d="M18.44,7.19l.72-.67.25.28-.74.64Z"/><path class="cls-7" d="M18.82,7.63,19.59,7l.23.3L19,7.9Z"/><path class="cls-7" d="M20.53,11.68c0-.11,0-.22,0-.33l1-.16c0,.12,0,.25.05.37Z"/><path class="cls-7" d="M19.17,8.1,20,7.54l.21.31-.83.52Z"/><path class="cls-7" d="M20.44,11.1c0-.11,0-.22-.07-.33l1-.23c0,.12.06.25.08.37Z"/><path class="cls-7" d="M19.49,8.59l.85-.5.18.33-.87.46Z"/><path class="cls-7" d="M20.31,10.52l-.1-.32.94-.3.11.36Z"/><path class="cls-7" d="M19.77,9.11l.88-.43.16.34-.9.4Z"/><path class="cls-7" d="M20.13,10,20,9.65l.91-.37.13.35Z"/><path class="cls-14" d="M4,7.1v0S4,7,4,7V6.84l0-.27-.24.12-.12.06-.08,0,0,0,.19.12,0,0,0,0-.13.2-.2.34-.19.36L3,8.27A10.64,10.64,0,0,0,2.42,10a10.54,10.54,0,0,0-.18,4.32,10.56,10.56,0,0,0,.63,2.23l.05.14.06.13.12.27,0,.07,0,.06.07.13.13.26.15.25L3.6,18l0,.06,0,.06.16.24.08.12.08.12a10.72,10.72,0,0,0,1.47,1.7,10.46,10.46,0,0,0,3.36,2.11l.2.08.2.07.2.07.1,0,.1,0,.37.11.36.08.17,0,.17,0L11,23l.29,0,.27,0,.45,0h.62v-.08H12l-.45,0-.27,0L11,23l-.31-.06-.17,0-.17,0L10,22.75l-.37-.11-.1,0-.1,0-.19-.07-.2-.07-.2-.08a10.38,10.38,0,0,1-3.34-2.1A10.65,10.65,0,0,1,4.05,18.6L4,18.48l-.08-.12-.16-.24,0-.06,0-.06-.07-.12-.14-.25-.13-.26-.07-.13,0-.06,0-.07-.12-.26L3,16.71,3,16.58a10.45,10.45,0,0,1-.76-4.44,10.37,10.37,0,0,1,.31-2.06A10.56,10.56,0,0,1,3.12,8.3l.19-.38.19-.36.19-.33L3.81,7l0,0,0,0Z"/><circle class="cls-14" cx="12.6" cy="23.12" r="0.27"/><path class="cls-7" d="M12.7,21.41a.4.4,0,1,1,.4-.4A.4.4,0,0,1,12.7,21.41Zm0-.76a.36.36,0,1,0,.36.36A.36.36,0,0,0,12.7,20.65Z"/><rect class="cls-7" x="12.68" y="20.28" width="0.04" height="1.47"/><path class="cls-14" d="M16.91,4.9a.4.4,0,1,1,.54-.16A.4.4,0,0,1,16.91,4.9Zm.36-.67a.36.36,0,1,0,.15.49A.36.36,0,0,0,17.27,4.23Z"/><rect class="cls-14" x="16.37" y="4.53" width="1.47" height="0.04" transform="translate(4.99 17.45) rotate(-61.69)"/><circle class="cls-14" cx="21.72" cy="10.97" r="0.27"/><circle class="cls-14" cx="21.83" cy="11.74" r="0.27"/><circle class="cls-14" cx="21.87" cy="12.52" r="0.27"/><path id="icon" class="cls-5" d="M15,10.21a3.91,3.91,0,0,0-2.31.89,2.71,2.71,0,0,0-.58.77h-1a.2.2,0,0,0-.17.12l-.51,1.16a.2.2,0,0,0,.2.29l.83-.14.67.69-.11.91a.19.19,0,0,0,.28.2l1.14-.54a.2.2,0,0,0,.11-.17l0-1a3.32,3.32,0,0,0,.75-.59,4.11,4.11,0,0,0,.87-2.36A.19.19,0,0,0,15,10.21Zm-.75,1.5a.38.38,0,0,1-.54,0,.4.4,0,0,1,0-.55.38.38,0,0,1,.54,0A.4.4,0,0,1,14.2,11.71Zm-3.43,2.93c-.26-.27.08-.94,0-.93a1,1,0,0,0-.21,1.2,1,1,0,0,0,1.17-.22C11.65,14.57,11,14.91,10.77,14.64Zm.58-.6c-.17-.17,0-.58-.06-.57a.65.65,0,0,0-.14.77.65.65,0,0,0,.76-.14C11.9,14,11.53,14.22,11.36,14Z"/></g></g></g></svg>