<svg xmlns="http://www.w3.org/2000/svg" xmlns:xlink="http://www.w3.org/1999/xlink" viewBox="0 0 22.81 22.81"><defs><style>.cls-1{isolation:isolate;}.cls-2,.cls-3,.cls-4{fill:#37a6de;}.cls-2{opacity:0.28;}.cls-2,.cls-3,.cls-8{mix-blend-mode:multiply;}.cls-5{fill:#fff;}.cls-6{fill:#52c0e2;}.cls-7{fill:#0abab5;}.cls-8{fill:url(#radial-gradient);}.cls-9{fill:#053f55;}</style><radialGradient id="radial-gradient" cx="11.41" cy="11.41" r="7.11" gradientUnits="userSpaceOnUse"><stop offset="0" stop-color="#fff"/><stop offset="0.35" stop-color="#fff"/><stop offset="0.41" stop-color="#fff"/><stop offset="0.54" stop-color="#fdfdfd"/><stop offset="0.59" stop-color="#f6f6f6"/><stop offset="0.62" stop-color="#eaeaea"/><stop offset="0.65" stop-color="#d9d9d9"/><stop offset="0.67" stop-color="#c3c3c3"/><stop offset="0.7" stop-color="#a7a7a7"/><stop offset="0.72" stop-color="#868686"/><stop offset="0.73" stop-color="#606060"/><stop offset="0.75" stop-color="#353535"/><stop offset="0.77" stop-color="#060606"/><stop offset="0.77"/><stop offset="0.8" stop-color="#3c3c3c"/><stop offset="0.83" stop-color="#6f6f6f"/><stop offset="0.85" stop-color="#9b9b9b"/><stop offset="0.88" stop-color="#bfbfbf"/><stop offset="0.91" stop-color="#dbdbdb"/><stop offset="0.94" stop-color="#efefef"/><stop offset="0.97" stop-color="#fbfbfb"/><stop offset="1" stop-color="#fff"/></radialGradient></defs><title>Ресурс 15</title><g class="cls-1"><g id="Слой_2" data-name="Слой 2"><g id="Слой_1-2" data-name="Слой 1"><path class="cls-2" d="M3.79,7.6,1.94,6.68a10.59,10.59,0,0,1,5.7-5.16l.73,1.93A8.5,8.5,0,0,0,6.23,4.64,8.42,8.42,0,0,0,3.79,7.6Z"/><path class="cls-2" d="M10.2,21.33A10,10,0,0,1,8.41,1.87l.32,1a8.93,8.93,0,0,0,1.6,17.38Z"/><path class="cls-2" d="M9.61,20.78A9.54,9.54,0,0,1,8.83,2.22l.1.34a9.19,9.19,0,0,0,.74,17.87Z"/><path class="cls-3" d="M4,18.06a9.92,9.92,0,0,1-2.57-6.65A10,10,0,0,1,1.56,10,10,10,0,0,1,11.5,1.47v.18h-.1a9.75,9.75,0,0,0-7.23,16.3Z"/><path class="cls-4" d="M6.23,3.88l0-.06A9.14,9.14,0,0,1,11.41,2.2,9.26,9.26,0,0,1,13,2.34v.07a9.19,9.19,0,0,0-1.56-.13A9.07,9.07,0,0,0,6.23,3.88Z"/><path class="cls-5" d="M11.41,22.28A10.87,10.87,0,1,1,22.28,11.41,10.88,10.88,0,0,1,11.41,22.28Zm0-21.64A10.77,10.77,0,1,0,22.17,11.41,10.78,10.78,0,0,0,11.41.64Z"/><path class="cls-6" d="M10.3,1.26l-.22,0-.26,0-.33.06-.39.08-.21,0-.22.06-.45.14-.46.16a10.32,10.32,0,0,0-1.62.79l-.28.18L5.64,3l-.18.13L7,5.26l.14-.1.16-.1.21-.13A7.55,7.55,0,0,1,10,4l.24,0,.19,0,.17,0L10.3,1.26Z"/><path class="cls-6" d="M16,2.31l-.23-.12-.31-.14-.37-.15-.2-.08-.21-.07-.45-.14-.47-.13A10.1,10.1,0,0,0,12,1.21h-.82l0,2.65h.61a7.44,7.44,0,0,1,1.32.2,7.63,7.63,0,0,1,1.26.42l.23.1.17.09.15.08,1.26-2.34Z"/><path class="cls-7" d="M21.54,10.13c0-.27-.08-.54-.13-.81l-.09-.4c0-.13-.07-.26-.11-.39A10.21,10.21,0,0,0,20.64,7a10.64,10.64,0,0,0-.73-1.29l-.2-.29-.1-.14-.1-.13-.2-.26-.21-.24a10,10,0,0,0-1.45-1.36l-.13-.11-.12-.09L17.2,3l-.12-.08,0,0L15.57,5.1l0,0,.09.06.14.1.09.06.1.08a7.34,7.34,0,0,1,1.07,1l.15.18.15.19.08.1.07.1.15.21a8,8,0,0,1,.54,1,7.54,7.54,0,0,1,.42,1.1c0,.1.06.19.08.29l.07.3c0,.2.08.4.1.6A7.3,7.3,0,0,1,19,11.68c0,.05,0,.1,0,.15V12c0,.1,0,.2,0,.3l0,.29-.05.28c0,.09,0,.19-.06.28s0,.18-.07.27l-.07.26-.09.25,0,.12,0,.12-.09.23c-.07.15-.13.3-.2.43a7.53,7.53,0,0,1-.79,1.24l-.15.19-.12.13-.1.11,2,1.78.13-.15.16-.18.2-.25A10.19,10.19,0,0,0,20.53,16c.1-.18.18-.38.27-.58l.13-.31.06-.16.06-.17.11-.34.1-.35c0-.12.06-.24.09-.37s.06-.25.08-.38L21.5,13l.05-.39c0-.13,0-.26,0-.4V12c0-.07,0-.13,0-.2A10,10,0,0,0,21.54,10.13Z"/><path class="cls-6" d="M16.53,17l0,0-.05,0-.14.13-.09.08-.1.08a7.48,7.48,0,0,1-1.11.73l-.32.16-.32.14-.3.12-.28.1-.12,0-.11,0-.18.05-.12,0h0l.62,2.58h.06l.16,0,.25-.07.15,0,.17-.06L15,21l.41-.16.43-.19.44-.22a10.14,10.14,0,0,0,1.5-1l.14-.11.12-.1.2-.17.07-.06.05,0,0,0-1.81-1.94Z"/><path class="cls-7" d="M12.35,18.9l-.19,0-.25,0-.51,0a7.5,7.5,0,0,1-.82,0l-.36,0-.34-.06-.32-.07-.28-.08-.13,0-.11,0-.18-.06-.12,0,0,0-.95,2.48.05,0L8,21l.24.08.15.05.17,0,.38.11.43.1.47.08.48.06a10.15,10.15,0,0,0,1.11.06l.69,0,.33,0,.26,0,.22,0-.39-2.63Z"/><path class="cls-6" d="M4.8,15.08,4.74,15l-.09-.17-.05-.1-.05-.12-.12-.27L4.31,14l-.11-.33-.1-.35A7.55,7.55,0,0,1,3.88,12c0-.09,0-.17,0-.25V11.1c0-.09,0-.2,0-.31s0-.12,0-.17l0-.18,0-.18,0-.17c0-.11,0-.22.06-.3l0-.21,0-.08L1.53,8.82l0,.11-.07.29c0,.12-.05.26-.08.41l0,.23,0,.24,0,.24c0,.08,0,.16,0,.24s0,.3,0,.42v.89c0,.1,0,.21,0,.33v.19c0,.07,0,.13,0,.2l0,.21c0,.07,0,.15,0,.22s.05.31.09.47.07.32.11.48l.13.47.15.45.16.41c.05.13.11.25.16.36l.07.16.07.14.12.23.08.15,0,.05,2.31-1.3Z"/><path class="cls-6" d="M7.49,17.88l-.27-.17L5.75,19.91l.36.23.37.22L7.77,18Z"/><path class="cls-6" d="M6.66,17.28l-.17-.14L6.32,17l-.07-.07L4.44,18.87l.1.09.22.19.23.19.11.08,1.64-2.09Z"/><path class="cls-6" d="M5.8,16.48l0-.05-.14-.17-.07-.09-.06-.08L5.41,16,3.31,17.63l.08.11.09.11.1.12.19.22.06.07,0,0,2-1.79Z"/><path class="cls-7" d="M2.34,6.71l-.06.12c0,.07-.09.17-.13.27L2,7.36,2,7.49l2.45,1,0-.09.09-.2.1-.2,0-.09Z"/><path class="cls-7" d="M3.23,5.28l0,0-.06.08L3,5.63l-.09.13-.07.12L2.75,6,5,7.4l.05-.08.06-.09.07-.1L5.3,7l0-.06,0,0Z"/><path class="cls-7" d="M4.35,4l-.1.09L4,4.33l-.2.21-.09.1,2,1.76.07-.08L6,6.17,6.11,6l.07-.07Z"/><path class="cls-8" d="M11.41,4.3a7.11,7.11,0,1,0,7.11,7.11A7.11,7.11,0,0,0,11.41,4.3Zm0,10.82a3.71,3.71,0,1,1,3.71-3.71A3.71,3.71,0,0,1,11.41,15.11Z"/><path class="cls-7" d="M11.41,4.5a6.91,6.91,0,1,0,6.91,6.91A6.91,6.91,0,0,0,11.41,4.5Zm0,12.49A5.59,5.59,0,1,1,17,11.41,5.59,5.59,0,0,1,11.41,17Z"/><path class="cls-7" d="M14.4,11.13v.69a.86.86,0,0,1-.86.86h-1a.86.86,0,0,1-.84-.72v0h.6a.28.28,0,0,0,.24.16h1a.28.28,0,0,0,.28-.28v-.69a.28.28,0,0,0-.28-.28h-1a.28.28,0,0,0-.24.16h-.6v0a.86.86,0,0,1,.84-.72h1A.86.86,0,0,1,14.4,11.13Zm-3.84.81a.28.28,0,0,1-.24.16h-1A.28.28,0,0,1,9,11.82v-.69a.28.28,0,0,1,.28-.28h1a.28.28,0,0,1,.24.16h.6v0a.86.86,0,0,0-.84-.72h-1a.86.86,0,0,0-.86.86v.69a.86.86,0,0,0,.86.86h1a.86.86,0,0,0,.84-.72v0Zm.77-2.3V8.72a.12.12,0,1,0-.24,0v.92a.12.12,0,1,0,.24,0Zm-.71.17a.15.15,0,0,0,0-.19L10,9a.11.11,0,0,0-.17,0,.15.15,0,0,0,0,.19l.58.65a.11.11,0,0,0,.17,0Zm1.35,0,.58-.65a.15.15,0,0,0,0-.19.11.11,0,0,0-.17,0l-.58.65a.15.15,0,0,0,0,.19.11.11,0,0,0,.17,0Zm-.64,4.28v-.92a.12.12,0,1,0-.24,0v.92a.12.12,0,1,0,.24,0ZM10,13.84l.58-.65a.15.15,0,0,0,0-.19.11.11,0,0,0-.17,0l-.58.65a.15.15,0,0,0,0,.19.11.11,0,0,0,.17,0Zm2.52,0a.15.15,0,0,0,0-.19L12,13a.11.11,0,0,0-.17,0,.15.15,0,0,0,0,.19l.58.65a.11.11,0,0,0,.17,0Z"/><path class="cls-9" d="M20.58,9.48a9.31,9.31,0,0,0-1.42-3.32,9.1,9.1,0,0,0-1-1.22,9,9,0,0,0-1-.89c-.15-.13-.31-.23-.45-.33l-.21-.14-.19-.12,0,0,0,0-.08,0L16,3.28l-.13-.08-.11-.06L15.56,3l-.13.26-.31-.14L15,3.09,14.84,3l-.29-.11c-.2-.06-.39-.14-.59-.19a8.93,8.93,0,0,0-1.18-.26c-.2,0-.4-.05-.59-.06l-.3,0H11l-.29,0-.29,0-.28,0H10l-.14,0-.21,0-.06-.28H9.55l-.18,0-.25.06-.28.08-.14,0-.14,0-.24.08-.17.06-.06,0L8.2,3a9.25,9.25,0,0,0-.95.43l-.13-.25-.06,0-.16.09-.22.13-.12.08-.12.08c-.17.1-.33.22-.45.31l-.08.06L5.84,4,5.78,4,6,4.25a9.12,9.12,0,0,0-.79.68L5,4.73l0,0-.06.05L4.8,4.9l-.18.18,0,.05,0,.05-.1.11-.1.11-.09.11-.16.2L4,5.87l0,.06.23.17-.25.37q-.17.26-.31.51l-.25-.14,0,.06,0,.07,0,.09c-.07.13-.16.31-.24.49l-.12.27L2.78,8l-.07.17,0,.06.27.1,0,0-.1.3L2.76,9a8.61,8.61,0,0,0-.3,1.77v.15s0,.09,0,.13v.72s0,.08,0,.13V12a8.61,8.61,0,0,0,.3,1.77l.08.29.1.3,0,0-.27.1,0,.06.07.17.09.24.12.27c.08.18.17.36.24.49l0,.09,0,.07,0,.06.25-.14q.14.25.31.51l.25.37-.23.17,0,.06.11.14.16.2.09.11.1.11.1.11,0,.05,0,.05.18.18.07.07.06.05,0,0,.2-.21a9.12,9.12,0,0,0,.79.68l-.17.23.05,0,.06,0,.08.06c.12.09.28.2.45.31l.12.08.12.08.22.13.16.09.06,0,.13-.26a9.24,9.24,0,0,0,.95.43l-.1.27.06,0,.17.06.24.08.14,0,.14,0,.28.08.25.06.18,0h.07l.06-.28.21,0,.14,0h.14l.28,0,.29,0,.29,0h.88l.3,0c.2,0,.39,0,.59-.07A8.92,8.92,0,0,0,14,20.08c.2-.05.39-.12.59-.19l.29-.11.14-.06.14-.06.31-.14.13.26.21-.11.11-.06.13-.08.15-.09.08,0,0,0,0,0,.19-.12.21-.14c.14-.1.29-.2.45-.33a9,9,0,0,0,1-.89,9.1,9.1,0,0,0,1-1.22,9.33,9.33,0,0,0,1.42-7.17Zm-5.52,10-.14.06-.14.06-.28.11c-.19.06-.38.13-.58.18a8.76,8.76,0,0,1-1.16.25c-.19,0-.39.05-.58.06l-.29,0H11l-.28,0-.28,0-.28,0H10l-.14,0-.2,0,.06-.28H9.7l-.16,0-.23-.05-.26-.07-.13,0-.13,0-.22-.08-.16-.06-.06,0-.1.27a9.11,9.11,0,0,1-.93-.43L7.46,19l-.06,0-.14-.08-.2-.12-.11-.07-.11-.07c-.16-.1-.3-.2-.41-.28l-.08-.05-.06,0,0,0-.18.23a9,9,0,0,1-.77-.67l.2-.21,0,0-.05-.05-.06-.07-.16-.17,0,0,0-.05L5,17l-.09-.1-.08-.1-.14-.18-.1-.13,0-.05-.23.17L4,16.27q-.16-.25-.31-.5L4,15.62l0-.05,0-.06,0-.08c-.06-.12-.15-.28-.22-.45l-.11-.24-.09-.22-.06-.15,0-.06-.27.1,0,0L3,14.05l-.08-.28A8.45,8.45,0,0,1,2.62,12v-.14s0-.09,0-.13v-.71s0-.08,0-.13v-.14A8.45,8.45,0,0,1,2.92,9L3,8.76l.1-.29,0,0,.27.1,0-.06.06-.15.09-.22.11-.24c.07-.17.16-.33.22-.45l0-.08,0-.06,0-.05L3.74,7q.14-.25.31-.5l.25-.36.23.17,0-.05.1-.13L4.81,6l.08-.1L5,5.79l.09-.1,0-.05,0,0,.16-.17.06-.07.05-.05,0,0L5.29,5a9,9,0,0,1,.77-.67l.18.23,0,0,.06,0,.08-.05c.11-.08.26-.19.41-.28l.11-.07L7.06,4l.2-.12.14-.08.06,0-.13-.25a9.09,9.09,0,0,1,.93-.43l.1.27.06,0,.16-.06.22-.07.13,0,.13,0,.26-.07L9.54,3,9.7,3h.06l-.06-.28.2,0,.14,0h.14l.28,0,.28,0,.28,0h.86l.29,0c.19,0,.39,0,.58.06a8.76,8.76,0,0,1,1.16.25c.19.05.38.12.58.18l.28.11.14.06.14.06.3.14-.13.26.19.1.1.05.12.07L15.8,4l.08,0,0,0,0,0,.17.11.19.13c.13.09.27.19.41.3a8.26,8.26,0,0,1,.91.82,8.37,8.37,0,0,1,.92,1.12A8.63,8.63,0,0,1,19.34,8a8.58,8.58,0,0,1,0,6.84,8.63,8.63,0,0,1-.78,1.41,8.36,8.36,0,0,1-.92,1.12,8.26,8.26,0,0,1-.91.82c-.14.12-.28.21-.41.3l-.19.13-.17.11,0,0,0,0-.08,0-.14.08-.12.07-.1.05-.19.1.13.26Z"/><path class="cls-6" d="M.23,11.2A11.14,11.14,0,0,1,3.05,4,.21.21,0,1,0,3,3.82.21.21,0,0,0,3.05,4,11.19,11.19,0,0,0,.18,11.2a.21.21,0,1,0,.23.2A.21.21,0,0,0,.18,11.2Z"/><path class="cls-6" d="M5.51,20.72a.21.21,0,0,0-.16.08,11.19,11.19,0,0,1-3.92-4.36.21.21,0,1,0-.11,0h.07a11.24,11.24,0,0,0,3.94,4.38.2.2,0,0,0,0,.09.21.21,0,1,0,.21-.21Z"/><path class="cls-6" d="M21.42,16.22a.21.21,0,0,0-.12.38,11.28,11.28,0,0,1-4.93,4.82h0a11.05,11.05,0,0,1-4.77,1.16.21.21,0,1,0-.2.23.21.21,0,0,0,.2-.23,11.1,11.1,0,0,0,4.79-1.17v0a11.33,11.33,0,0,0,4.95-4.84h.07a.21.21,0,1,0,0-.41Z"/><path class="cls-6" d="M22.63,11.2a11.24,11.24,0,0,0-2.56-6.93h0l0,0A11.19,11.19,0,0,0,11.61.19a.21.21,0,1,0-.2.23.21.21,0,0,0,.2-.23A11.14,11.14,0,0,1,20,4.3h0a11.2,11.2,0,0,1,2.55,6.9.21.21,0,1,0,.23.2A.21.21,0,0,0,22.58,11.2Z"/><path class="cls-2" d="M19.88,12.34l2,.22a10.59,10.59,0,0,1-3.56,6.82L17,17.83A8.5,8.5,0,0,0,18.61,16,8.42,8.42,0,0,0,19.88,12.34Z"/><path class="cls-2" d="M9.09,1.68a10,10,0,0,1,8.43,17.63l-.65-.84A8.93,8.93,0,0,0,9.34,2.72Z"/><path class="cls-2" d="M9.84,2A9.54,9.54,0,0,1,17,19.13l-.21-.29A9.19,9.19,0,0,0,9.9,2.35Z"/><path class="cls-3" d="M16,2.61A9.92,9.92,0,0,1,20.72,8a10,10,0,0,1,.39,1.32,10,10,0,0,1-6.35,11.49l-.06-.17.09,0A9.75,9.75,0,0,0,15.93,2.76Z"/><path class="cls-4" d="M18.87,16.67l.06,0A9.14,9.14,0,0,1,14.6,20a9.26,9.26,0,0,1-1.53.42v-.07A9.19,9.19,0,0,0,14.58,20,9.07,9.07,0,0,0,18.87,16.67Z"/><path class="cls-5" d="M7.63,1.21a10.87,10.87,0,1,1-6.42,14A10.88,10.88,0,0,1,7.63,1.21ZM15.14,21.5A10.77,10.77,0,1,0,1.31,15.14,10.78,10.78,0,0,0,15.14,21.5Z"/></g></g></g></svg>