<?xml version="1.0" encoding="utf-8"?>
<!-- Generator: Adobe Illustrator 21.1.0, SVG Export Plug-In . SVG Version: 6.00 Build 0)  -->
<svg version="1.1" id="Слой_1" xmlns="http://www.w3.org/2000/svg" xmlns:xlink="http://www.w3.org/1999/xlink" x="0px" y="0px"
	 viewBox="0 0 841.9 595.3" style="enable-background:new 0 0 841.9 595.3;" xml:space="preserve">
<style type="text/css">
	.st0{fill:#26B4B2;}
	.st1{fill:#FFFFFF;}
	.st2{opacity:0.4;}
	.st3{fill:url(#SVGID_1_);}
	.st4{fill:none;stroke:#36B9CB;stroke-miterlimit:10;}
	.st5{fill-rule:evenodd;clip-rule:evenodd;fill:#26B4B2;}
	.st6{fill:#073F55;}
	.st7{fill:#95D3EA;}
</style>
<g>
	<g>
		<g>
			<g>
				<path class="st0" d="M421.3,248.8c0.1,0,0.2,0,0.4,0c0.4-30,0.7-60.1,1.1-90.1c-0.3,0-0.7,0-1,0
					C421.6,188.8,421.4,218.8,421.3,248.8z"/>
				<path class="st0" d="M360.4,299.3c0-0.4,0-0.9,0-1.3c-24.6,0.2-49.2,0.4-73.7,0.6c0,1,0,2,0.1,2.9
					C311.3,300.8,335.9,300.1,360.4,299.3z"/>
				<path class="st0" d="M443,255.4c0.1,0,0.2,0.1,0.3,0.2c14.1-26.5,28.1-53.1,42.2-79.6c-0.3-0.2-0.6-0.3-0.9-0.5
					C470.7,202.1,456.9,228.7,443,255.4z"/>
				<path class="st0" d="M326.2,314.2c-3.6-21.1-0.2-43.4,9.8-62.3c12.9-24,36.6-42.2,63.2-48.4c26.6-6.2,55.9-0.3,78.1,15.6
					c22.1,15.9,37.1,41.9,39.7,69c1.2,12.5-0.2,25.2-3.8,37.2l0.2,0c3.6-12,5.1-24.7,3.8-37.2c-2.7-27.2-17.6-53.2-39.8-69.1
					c-22.2-15.9-51.6-21.8-78.2-15.6c-26.6,6.2-50.4,24.4-63.3,48.5c-10.1,18.8-13.5,41.2-9.9,62.3L326.2,314.2z"/>
				<path class="st0" d="M307.2,313.1c-3.1-23.9,1.1-48.8,12.4-69.9c15.4-28.7,43.8-50.4,75.5-57.8c31.7-7.4,66.7-0.4,93.2,18.6
					c22.1,15.9,38.2,40.2,44.7,66.6l0-0.6c-6.6-26.3-22.6-50.3-44.6-66.1c-26.5-19-61.6-26-93.3-18.6c-31.8,7.4-60.2,29.2-75.6,57.9
					c-11.3,21.2-15.6,46.1-12.4,70L307.2,313.1z"/>
				<path class="st0" d="M356,316c-4-14.4-3.3-30.2,2.3-44.1c7.2-17.7,22.5-32.2,40.6-38.5c18.1-6.2,39.1-4.3,55.7,5.2
					c16.7,9.5,29,26.5,32.8,45.3c2.7,13.2,1.1,27.2-4,39.7l0.2,0c5.1-12.5,6.7-26.5,4-39.7c-3.9-18.8-16.2-35.9-32.9-45.4
					c-16.7-9.5-37.7-11.5-55.9-5.2c-18.2,6.3-33.5,20.8-40.7,38.6c-5.6,13.9-6.3,29.7-2.3,44.1L356,316z"/>
				<path class="st0" d="M475.1,273.7c6.7-3,13.5-6,20.2-8.9c6.4,14.6,8.4,31.3,5.6,47c0,0-0.1,0-0.1,0c-7.2-1.3-14.4-2.6-21.7-3.9
					C481.2,296.4,479.7,284.3,475.1,273.7z M500.8,311c2.6-15.2,0.6-31.2-5.4-45.4c-6.6,2.8-13.3,5.7-19.9,8.6
					c4.4,10.4,5.9,22.1,4,33.3C486.6,308.6,493.7,309.8,500.8,311z"/>
				<path class="st0" d="M355.3,308.1c-11.2,1.8-22.4,3.6-33.6,5.4c-4.8-30,5-62.3,25.7-84.5c0.1,0,0.1,0.1,0.1,0.1
					c8.3,7.7,16.5,15.4,24.8,23C358.6,266.9,352.1,288.2,355.3,308.1z M346.7,230.3c-19.6,21.8-29.1,52.7-24.8,81.7
					c11-1.6,21.9-3.2,32.9-4.8c-2.8-19.4,3.5-40.1,16.6-54.6C363.2,245.2,355,237.7,346.7,230.3z"/>
				<path class="st0" d="M496,257.1c-7.3-13.6-18.4-25.1-31.7-33c1-1.7,1.9-3.3,2.9-4.9c0.1,0.1,0.2,0.1,0.2,0.1
					c14.1,8.4,25.9,20.6,33.6,35C499.4,255.3,497.7,256.2,496,257.1z M467.7,219.6c-0.9,1.6-1.9,3.2-2.8,4.8
					c12.9,7.7,23.8,19,31.1,32.3c1.6-0.9,3.3-1.8,4.9-2.7C493,239.8,481.5,227.8,467.7,219.6z"/>
			</g>
			<g>
				<path class="st0" d="M507.7,280l-3.5-0.2c4.3,21.9,0.6,45.6-11.4,64.2c-19.5,30-60,45.4-94.5,36.1c-34.5-9.4-61.6-43.2-63.2-79
					c-0.9,0-1.9,0.1-2.8,0.1c1.7,36.9,29.6,71.9,65.3,81.6c35.7,9.7,77.5-6.3,97.6-37.2c10.1-15.6,15.2-34.5,14.2-53.1
					C509.1,288.2,508.5,284,507.7,280z"/>
				<path class="st0" d="M420.5,345.8c-0.1,0-0.2,0-0.4,0c-0.4,30-0.7,60.1-1.1,90.1c0.3,0,0.7,0,1,0
					C420.3,405.9,420.4,375.9,420.5,345.8z"/>
				<path class="st0" d="M481.4,295.3c0,0.4,0,0.9,0,1.3c24.6-0.2,49.2-0.4,73.7-0.6c0-1,0-2-0.1-2.9
					C530.5,293.8,506,294.6,481.4,295.3z"/>
				<path class="st0" d="M398.8,339.3c-0.1,0-0.2-0.1-0.3-0.2c-14.1,26.5-28.1,53.1-42.2,79.6c0.3,0.2,0.6,0.3,0.9,0.5
					C371.1,392.6,385,366,398.8,339.3z"/>
				<path class="st0" d="M515.6,280.4c3.6,21.1,0.2,43.4-9.8,62.3c-12.9,24-36.6,42.2-63.2,48.4c-26.6,6.2-55.9,0.3-78.1-15.6
					c-22.1-15.9-37.1-41.9-39.7-69c-1.2-12.5,0.2-25.2,3.8-37.2l-0.2,0c-3.6,12-5.1,24.7-3.8,37.2c2.7,27.2,17.6,53.2,39.8,69.1
					c22.2,15.9,51.6,21.8,78.2,15.6c26.6-6.2,50.4-24.4,63.3-48.5c10.1-18.8,13.5-41.2,9.9-62.3L515.6,280.4z"/>
				<path class="st0" d="M534.7,281.6c3.1,23.9-1.1,48.8-12.4,69.9c-15.4,28.7-43.8,50.4-75.5,57.8c-31.7,7.4-66.7,0.4-93.2-18.6
					c-22.1-15.9-38.2-40.2-44.7-66.6l0,0.6c6.6,26.3,22.6,50.3,44.6,66.1c26.5,19,61.6,26,93.3,18.6c31.8-7.4,60.2-29.2,75.6-57.9
					c11.3-21.2,15.6-46.1,12.4-70L534.7,281.6z"/>
				<path class="st0" d="M485.8,278.7c4,14.4,3.3,30.2-2.3,44.1c-7.2,17.7-22.5,32.2-40.6,38.5c-18.1,6.2-39.1,4.3-55.7-5.2
					c-16.7-9.5-29-26.5-32.8-45.3c-2.7-13.2-1.1-27.2,4-39.7l-0.2,0c-5.1,12.5-6.7,26.5-4,39.7c3.9,18.8,16.2,35.9,32.9,45.4
					c16.7,9.5,37.7,11.5,55.9,5.2c18.2-6.3,33.5-20.8,40.7-38.6c5.6-13.9,6.3-29.7,2.3-44.1L485.8,278.7z"/>
				<path class="st0" d="M486.5,286.6c11.2-1.8,22.4-3.6,33.6-5.4c4.8,30-5,62.3-25.7,84.5c-0.1,0-0.1-0.1-0.1-0.1
					c-8.3-7.7-16.5-15.4-24.8-23C483.2,327.8,489.7,306.4,486.5,286.6z M495.1,364.4c19.6-21.8,29.1-52.7,24.8-81.7
					c-11,1.6-21.9,3.2-32.9,4.8c2.8,19.4-3.5,40.1-16.6,54.6C478.7,349.5,486.9,356.9,495.1,364.4z"/>
				<path class="st0" d="M345.8,337.6c7.3,13.6,18.4,25.1,31.7,33c-1,1.7-1.9,3.3-2.9,4.9c-0.1-0.1-0.2-0.1-0.2-0.1
					c-14.1-8.4-25.9-20.6-33.6-35C342.4,339.4,344.1,338.5,345.8,337.6z M374.2,375.1c0.9-1.6,1.9-3.2,2.8-4.8
					c-12.9-7.7-23.8-19-31.1-32.3c-1.6,0.9-3.3,1.8-4.9,2.7C348.8,354.8,360.4,366.8,374.2,375.1z"/>
			</g>
		</g>
	</g>
	<g>
		<g>
			<g>
				<g>
					
						<ellipse transform="matrix(5.928493e-02 -0.9982 0.9982 5.928493e-02 98.4982 702.7434)" class="st1" cx="422.1" cy="299.1" rx="58.1" ry="58.1"/>
					<g class="st2">
						
							<radialGradient id="SVGID_1_" cx="431.4908" cy="303.7467" r="7.1268" gradientTransform="matrix(9.9824 0.5928 -0.5928 9.9824 -3705.9099 -2989.5205)" gradientUnits="userSpaceOnUse">
							<stop  offset="0" style="stop-color:#FFFFFF"/>
							<stop  offset="0.3509" style="stop-color:#FFFFFF"/>
							<stop  offset="0.4086" style="stop-color:#FFFFFF"/>
							<stop  offset="0.5372" style="stop-color:#FDFDFD"/>
							<stop  offset="0.586" style="stop-color:#F6F6F6"/>
							<stop  offset="0.6211" style="stop-color:#EAEAEA"/>
							<stop  offset="0.6498" style="stop-color:#D9D9D9"/>
							<stop  offset="0.6745" style="stop-color:#C3C3C3"/>
							<stop  offset="0.6964" style="stop-color:#A7A7A7"/>
							<stop  offset="0.7163" style="stop-color:#868686"/>
							<stop  offset="0.7347" style="stop-color:#606060"/>
							<stop  offset="0.7517" style="stop-color:#353535"/>
							<stop  offset="0.767" style="stop-color:#060606"/>
							<stop  offset="0.7688" style="stop-color:#000000"/>
							<stop  offset="0.7973" style="stop-color:#3C3C3C"/>
							<stop  offset="0.8259" style="stop-color:#6F6F6F"/>
							<stop  offset="0.8548" style="stop-color:#9B9B9B"/>
							<stop  offset="0.8837" style="stop-color:#BFBFBF"/>
							<stop  offset="0.9126" style="stop-color:#DBDBDB"/>
							<stop  offset="0.9416" style="stop-color:#EFEFEF"/>
							<stop  offset="0.9707" style="stop-color:#FBFBFB"/>
							<stop  offset="1" style="stop-color:#FFFFFF"/>
						</radialGradient>
						<path class="st3" d="M425.5,227.3c-39.3-2.3-73,27.6-75.4,66.9c-2.3,39.3,27.6,73,66.9,75.4c39.3,2.3,73-27.6,75.4-66.9
							C494.8,263.3,464.8,229.6,425.5,227.3z M419.1,335.5c-20.5-1.2-36.1-18.8-34.9-39.3c1.2-20.5,18.8-36.1,39.3-34.9
							c20.5,1.2,36.1,18.8,34.9,39.3C457.2,321.1,439.6,336.7,419.1,335.5z"/>
					</g>
				</g>
				
					<ellipse transform="matrix(5.928493e-02 -0.9982 0.9982 5.928493e-02 98.4625 701.2741)" class="st4" cx="421.3" cy="298.4" rx="59.3" ry="59.3"/>
			</g>
			<g>
				<g>
					<path class="st5" d="M406.6,300.5c-0.7-4.2-0.5-8.5-0.7-13c-0.3-4.7-2.7-10.8-6.6-14c4.7-1.5,9.4,7.8,9.7,9.7
						c0.1,0.8-1.2-9.3-0.7-8c3.6,0.5,3.8,9.2,4.2,8.5c2.4-3.3,3-1.5,3.2,2.5c0,0.5-0.7,3.6-0.7,3.4c0.8-2.8,2.6-6.1,3.4-1.4
						c0.3,2-1.4,5.9,0.1,3.9c1.4-1.9,2.4-0.7,2.7,1.4c0.6,3.6-2.6,7.1-3.7,10.2c-0.4,1-1.6,2.2-2.3,3.1c-0.9,1.3-1.6,0.1-2.3-1
						c-0.6-1.3-4.5-2.6-4.6-3.5C408.2,301.2,407.4,299.8,406.6,300.5L406.6,300.5z"/>
					<path class="st5" d="M404.2,294.1c-1.8-2.6-3.9-2.6-6.5-1.6c-4.7,1.8-10,11.5-7,12.9c4.5,1.5,5.3-0.8,5.4,0.4
						c0.6,6.6,4.5,11.3,8.1,14c5.4,4.1-0.9-0.3,3.7,2.5c2.7,1.7,6.7,3.2,7.7,4.8c4.3,7,10.1,16.7,5.4,19.4c6.4-1.3,0.7-14,1.1-13.4
						c2,2.6,4.2,8.2,3,10.9c2.7,0.1,6.9-4.7,4.4-11.2c-1.1-3-3.6-10.1-6.8-13.9c-2.8-3.5-1.6-11.8-10.3-19c-3.4-2.8-4-0.4-5.3-1.2
						C405.6,297.6,406.4,298.7,404.2,294.1L404.2,294.1z"/>
					<path class="st5" d="M390.1,306.1c-0.5,0.8-5,7-5,7.8c0.5-0.6,5.3-4.8,7-6.8c0.5-0.6,1.2-1,0.8-1.4c-0.1-0.1,0.5-0.9,0.8-1.5
						c0.1-0.1,0.1-0.6,0-0.6c-0.5,0-1.5,0.7-2.2,1.4C391,305.8,390.4,305.7,390.1,306.1L390.1,306.1z"/>
					<path class="st5" d="M407.5,301.3c7.7-18.9,40-22.8,30.2-48.5c1.4-0.1,8.2,4.4,2.6,22c2.7-2.4,4.2-5.2,7.1-9.8
						c3.6,4.6-2.6,13.2-6.5,16c6.8-1.5,7.6-4.4,10.4-5.7c1.7,8.5-10.1,11.4-10.3,11.4c-1.2,1,12.1-1.5,13.3-2.7
						c2.2,6.2-7.9,8.3-15.4,10c2.3,0.2,5.4,1.2,13.5-0.5c0.4,4.7-11.5,8.2-14.1,7c0.8,2.5,8.4,2.3,9,2.8c-1.3,3.1-9.3,5.5-13.3,4.7
						c1.3,1.1,3.5,1.2,4.5,1.6c3.1,1.6-3.1,4.8-7.8,4c1.1,4.6-1.4,4.1-6.1,1.1c0.8,3.3,0.7,5.5-4.7,0.2c0.1,2.5-1.4,2.5-5-0.5
						C414.7,312.8,408.3,301.3,407.5,301.3L407.5,301.3z"/>
					<g>
						<g>
							<path class="st5" d="M393.3,301.9c0,0.7,0.6,1.2,1.2,1.2c0.7,0,1.2-0.6,1.2-1.3c0-0.7-0.6-1.2-1.2-1.2
								C393.8,300.7,393.3,301.3,393.3,301.9L393.3,301.9z"/>
							<path class="st5" d="M393.6,302c0,0.6,0.5,1,1,1c0.5,0,0.9-0.5,0.9-1.1c0-0.6-0.5-1-1-1C394,300.9,393.5,301.4,393.6,302
								L393.6,302z"/>
						</g>
						<path class="st5" d="M394.5,301.1c-0.1,0-0.2,0.1-0.2,0.2c0,0.1,0.1,0.2,0.2,0.2c0.1,0,0.2-0.1,0.2-0.2
							C394.8,301.1,394.6,301.1,394.5,301.1L394.5,301.1z M394.9,301.3C394.9,301.3,394.8,301.3,394.9,301.3c-0.1,0.1,0,0.2,0,0.2
							c0.1,0,0.1-0.1,0.1-0.1C395,301.3,395,301.3,394.9,301.3L394.9,301.3z"/>
					</g>
					<path class="st5" d="M406.2,321.4c-0.3,0.3-1.1,0.7-1.5,1c-0.3,0.2,0.5,1.6,0.7,1.9c0.3,0.5,0.3,0.9,1,0.5
						c0.5-0.3,1.1-0.5,1.6-0.8c0.7-0.4,0.3-1.4,0.5-1.8c0.1-0.4-0.9,0.5-0.9,0.7c-0.1,0.2,0,0.4-0.1,0.5c-0.2,0.2-0.2,0.5-0.5,0.6
						l-0.8,0.1L406,324c0-0.5,0.6-1.6,1.1-1.9C407.8,321.7,406.5,321.2,406.2,321.4L406.2,321.4z"/>
					<path class="st5" d="M409.8,320.8c-0.3,0.4-1.3,0.9-1.9,1.2c-0.4,0.2,0.6,1.9,0.8,2.3c0.4,0.6,0.3,1.1,1.3,0.6
						c0.6-0.3,1.3-0.6,1.9-0.9c0.9-0.5,0.4-1.7,0.6-2.3c0.1-0.5-1,0.6-1.1,0.9c-0.1,0.3,0,0.4-0.2,0.6c-0.2,0.2,0,0.3-0.3,0.5
						l-0.7-0.2l-0.1-0.2c0-0.6,0.2-1.4,0.7-1.7C411.8,321.1,410.2,320.5,409.8,320.8L409.8,320.8z"/>
				</g>
			</g>
			<g>
				<path class="st0" d="M394.3,331.4c0-0.3-0.2-0.5-0.5-0.5l-3.7,0c-0.3,0-0.5,0.2-0.5,0.5l0,3.6c0,0.3,0.2,0.5,0.5,0.5l3.7,0.1
					c0.3,0,0.5-0.2,0.5-0.5L394.3,331.4z"/>
				<path class="st0" d="M464.4,293.5c0-0.3-0.2-0.5-0.5-0.5l-3.7,0c-0.3,0-0.5,0.2-0.5,0.5l0,3.7c0,0.3,0.2,0.5,0.5,0.5l3.7,0
					c0.3,0,0.5-0.2,0.5-0.5L464.4,293.5z"/>
				<path class="st0" d="M455.4,311.6c0-0.3-0.2-0.5-0.5-0.5l-3.7,0c-0.3,0-0.5,0.2-0.5,0.5l0,3.6c0,0.3,0.2,0.5,0.5,0.5l3.7,0
					c0.3,0,0.5-0.2,0.5-0.5L455.4,311.6z"/>
				<path class="st0" d="M425.9,258.4c0-0.3-0.2-0.5-0.5-0.5l-3.6-0.1c-0.3,0-0.5,0.2-0.5,0.5l0,3.6c0,0.3,0.2,0.5,0.5,0.5l3.7,0
					c0.3,0,0.5-0.2,0.5-0.5L425.9,258.4z"/>
				<path class="st0" d="M388,293.4c0-0.3-0.2-0.5-0.5-0.5l-3.7,0c-0.3,0-0.5,0.2-0.5,0.5l0,3.6c0,0.3,0.2,0.5,0.5,0.5l3.7,0.1
					c0.3,0,0.5-0.2,0.5-0.5L388,293.4z"/>
			</g>
		</g>
		<g>
			<g>
				<g>
					<path class="st0" d="M421.6,204.9c0.2-4.4,5.2-7.8,5.2-7.8s4.7,3.8,4.5,8.2c-0.2,4.4-5.2,7.8-5.2,7.8S421.4,209.3,421.6,204.9z
						"/>
				</g>
				<g>
					<path class="st0" d="M366.4,230.4c0.2-4.4,5.2-7.8,5.2-7.8s4.7,3.8,4.5,8.2c-0.2,4.4-5.2,7.8-5.2,7.8S366.2,234.8,366.4,230.4z
						"/>
				</g>
				<g>
					<path class="st0" d="M352.1,239.6c-6.4-3.9-7.3-14.3-7.3-14.3s9.6-4,16,0c6.5,3.9,7.3,14.3,7.3,14.3S358.6,243.5,352.1,239.6z"
						/>
				</g>
				<g>
					<path class="st0" d="M439.5,194.1c3.2-3,9.1-2,9.1-2s0.8,6-2.4,9c-3.2,3-9.1,2-9.1,2S436.3,197.1,439.5,194.1z"/>
				</g>
				<g>
					<path class="st0" d="M431.9,180.3c-1-1.5-0.1-3.8-0.1-3.8s2.5,0.1,3.4,1.7c1,1.5,0.1,3.8,0.1,3.8S432.9,181.8,431.9,180.3z"/>
				</g>
				<g>
					<path class="st0" d="M343.6,204.3c0.7-1.7,3.1-2.3,3.1-2.3s1.3,2.1,0.6,3.7c-0.7,1.7-3.1,2.3-3.1,2.3S342.9,206,343.6,204.3z"
						/>
				</g>
				<g>
					<path class="st6" d="M381,213.6c-1-7.3,6.3-14.2,6.3-14.2s8.8,4.8,9.8,12.1c1,7.2-6.3,14.2-6.3,14.2S382,220.8,381,213.6z"/>
				</g>
				<g>
					<g>
						<path class="st0" d="M463.4,203c0,0,3.5,6.9,1,11.9l0,0c-0.6,1.2-1.5,2.1-2.5,2.9l0,0c-3.2,2.6-7.7,3.3-7.7,3.3l0,0l0,0l0,0
							c0,0-3.5-6.9-1-11.9l0,0l0,0l0,0c-1.3,2.5-1,5.4-0.5,7.7l0,0c0.5,2.1,1.3,3.7,1.4,4l0,0c0.4-0.1,4.6-0.9,7.6-3.3l0,0
							c1-0.8,1.8-1.7,2.4-2.9l0,0c1.3-2.5,1-5.4,0.5-7.7l0,0C464.2,204.9,463.4,203.3,463.4,203L463.4,203c-0.5,0.2-4.6,0.9-7.7,3.4
							l0,0c-1,0.8-1.8,1.7-2.4,2.9l0,0l0,0l0,0c0.6-1.2,1.5-2.1,2.5-2.9l0,0C458.9,203.7,463.3,202.9,463.4,203L463.4,203L463.4,203
							L463.4,203L463.4,203z"/>
					</g>
				</g>
				<g>
					<g>
						<path class="st0" d="M360,207.8c0,0,7.2,2.6,8.8,8l0,0c0.4,1.3,0.4,2.6,0.2,3.8l0,0c-0.6,4.1-3.4,7.7-3.4,7.7l0,0l0,0l0,0
							c0,0-7.2-2.6-8.8-8l0,0l0.1,0l0.1,0c0.8,2.7,3,4.7,4.9,6l0,0c1.8,1.2,3.5,1.9,3.8,2l0,0c0.3-0.4,2.8-3.7,3.3-7.6l0,0
							c0.2-1.2,0.2-2.5-0.2-3.8l0,0c-0.8-2.7-3-4.7-4.9-6l0,0c-1.8-1.2-3.5-1.9-3.8-2l0,0c-0.3,0.4-2.8,3.7-3.3,7.6l0,0
							c-0.2,1.2-0.2,2.5,0.2,3.8l0,0l-0.1,0l-0.1,0c-0.4-1.3-0.4-2.6-0.2-3.8l0,0C357.2,211.4,360,207.8,360,207.8L360,207.8
							L360,207.8L360,207.8L360,207.8z"/>
					</g>
				</g>
			</g>
			<g>
				<g>
					<path class="st7" d="M423.7,395.2c-0.2,4.4-5.2,7.8-5.2,7.8s-4.7-3.8-4.5-8.2c0.2-4.4,5.2-7.8,5.2-7.8S423.9,390.8,423.7,395.2
						z"/>
				</g>
				<g>
					<path class="st0" d="M478.9,369.7c-0.2,4.4-5.2,7.8-5.2,7.8s-4.7-3.8-4.5-8.2c0.2-4.4,5.2-7.8,5.2-7.8S479.1,365.3,478.9,369.7
						z"/>
				</g>
				<g>
					<path class="st6" d="M497.1,363c8.6,5.2,9.8,19,9.8,19s-12.8,5.3-21.4,0.1c-8.6-5.2-9.8-19-9.8-19S488.5,357.7,497.1,363z"/>
				</g>
				<g>
					<path class="st0" d="M405.8,406.1c-3.2,3-9.2,2-9.2,2s-0.8-6,2.4-9c3.2-3,9.1-2,9.1-2S409,403.1,405.8,406.1z"/>
				</g>
				<g>
					<path class="st0" d="M413.4,419.9c1,1.5,0.1,3.8,0.1,3.8s-2.5-0.1-3.4-1.7c-1-1.5-0.1-3.8-0.1-3.8S412.5,418.4,413.4,419.9z"/>
				</g>
				<g>
					<path class="st0" d="M501.7,395.8c-0.7,1.7-3.1,2.3-3.1,2.3s-1.3-2.1-0.6-3.7c0.7-1.7,3.1-2.3,3.1-2.3S502.4,394.2,501.7,395.8
						z"/>
				</g>
				<g>
					<path class="st0" d="M463.8,383.2c0.7,5.4-4.7,10.5-4.7,10.5s-6.5-3.6-7.3-8.9c-0.7-5.4,4.7-10.5,4.7-10.5
						S463.1,377.8,463.8,383.2z"/>
				</g>
				<g>
					<g>
						<path class="st0" d="M381.9,397.2c0,0-3.5-6.9-1-11.9l0,0c0.6-1.2,1.5-2.1,2.5-2.9l0,0c3.2-2.6,7.7-3.3,7.7-3.3l0,0l0,0l0,0
							c0,0,3.5,6.9,1,11.9l0,0l0,0l0,0c1.3-2.5,1-5.4,0.5-7.7l0,0c-0.5-2.1-1.3-3.7-1.4-4l0,0c-0.4,0.1-4.6,0.9-7.6,3.3l0,0
							c-1,0.8-1.8,1.7-2.4,2.9l0,0c-1.3,2.5-1,5.4-0.5,7.7l0,0C381.1,395.3,381.9,396.9,381.9,397.2L381.9,397.2
							c0.5-0.2,4.6-0.9,7.7-3.4l0,0c1-0.8,1.8-1.7,2.4-2.9l0,0l0,0l0,0c-0.6,1.2-1.5,2.1-2.5,2.9l0,0
							C386.5,396.5,382,397.2,381.9,397.2L381.9,397.2L381.9,397.2L381.9,397.2L381.9,397.2z"/>
					</g>
				</g>
				<g>
					<g>
						<path class="st0" d="M485.3,392.4c0,0-7.2-2.6-8.8-8l0,0c-0.4-1.3-0.4-2.6-0.2-3.8l0,0c0.6-4.1,3.4-7.7,3.4-7.7l0,0l0,0l0,0
							c0,0,7.2,2.6,8.8,8l0,0l0,0l-0.1,0c-0.8-2.7-3-4.7-4.9-6l0,0c-1.8-1.2-3.5-1.9-3.8-2l0,0c-0.3,0.4-2.8,3.7-3.3,7.6l0,0
							c-0.2,1.2-0.2,2.5,0.2,3.8l0,0c0.8,2.7,3,4.7,4.9,6l0,0c1.8,1.2,3.5,1.9,3.8,2l0,0c0.3-0.4,2.8-3.7,3.3-7.6l0,0
							c0.2-1.2,0.2-2.5-0.2-3.8l0,0l0.1,0l0,0c0.4,1.3,0.4,2.6,0.2,3.8l0,0C488.1,388.8,485.3,392.3,485.3,392.4L485.3,392.4
							L485.3,392.4L485.3,392.4L485.3,392.4z"/>
					</g>
				</g>
			</g>
			<g>
				<g>
					<path class="st0" d="M327.5,301.2c-4.4-0.2-7.8-5.2-7.8-5.2s3.8-4.7,8.2-4.5c4.4,0.2,7.8,5.2,7.8,5.2S331.9,301.4,327.5,301.2z
						"/>
				</g>
				<g>
					<path class="st0" d="M353,356.4c-4.4-0.2-7.8-5.2-7.8-5.2s3.8-4.7,8.2-4.5c4.4,0.2,7.8,5.2,7.8,5.2S357.4,356.6,353,356.4z"/>
				</g>
				<g>
					<path class="st0" d="M362.2,370.6c-3.9,6.4-14.3,7.3-14.3,7.3s-4-9.6,0-16c3.9-6.5,14.3-7.3,14.3-7.3S366.1,364.2,362.2,370.6z
						"/>
				</g>
				<g>
					<path class="st0" d="M316.6,283.3c-3-3.2-2-9.2-2-9.2s6-0.8,9,2.4c3,3.2,2,9.1,2,9.1S319.7,286.5,316.6,283.3z"/>
				</g>
				<g>
					<path class="st0" d="M302.9,290.9c-1.5,1-3.8,0.1-3.8,0.1s0.1-2.5,1.7-3.4c1.5-1,3.8-0.1,3.8-0.1S304.4,289.9,302.9,290.9z"/>
				</g>
				<g>
					<path class="st0" d="M326.9,379.2c-1.7-0.7-2.3-3.1-2.3-3.1s2.1-1.3,3.7-0.6c1.7,0.7,2.3,3.1,2.3,3.1S328.6,379.8,326.9,379.2z
						"/>
				</g>
				<g>
					<path class="st0" d="M339.5,341.3c-5.4,0.7-10.5-4.7-10.5-4.7s3.6-6.5,8.9-7.3c5.4-0.7,10.5,4.7,10.5,4.7
						S344.9,340.5,339.5,341.3z"/>
				</g>
				<g>
					<g>
						<path class="st0" d="M325.5,259.4c0,0,6.9-3.5,11.9-1l0,0c1.2,0.6,2.1,1.5,2.9,2.5l0,0c2.6,3.2,3.3,7.7,3.3,7.7l0,0l0,0l0,0
							c0,0-6.9,3.5-11.9,1l0,0l0,0l0,0c2.5,1.3,5.4,1,7.7,0.5l0,0c2.1-0.5,3.7-1.3,4-1.4l0,0c-0.1-0.4-0.9-4.6-3.3-7.6l0,0
							c-0.8-1-1.7-1.8-2.9-2.4l0,0c-2.5-1.3-5.4-1-7.7-0.5l0,0C327.5,258.6,325.9,259.3,325.5,259.4L325.5,259.4
							c0.2,0.5,0.9,4.6,3.4,7.7l0,0c0.8,1,1.7,1.8,2.9,2.4l0,0l0,0l0,0c-1.2-0.6-2.1-1.5-2.9-2.5l0,0
							C326.2,263.9,325.5,259.4,325.5,259.4L325.5,259.4L325.5,259.4L325.5,259.4L325.5,259.4z"/>
					</g>
				</g>
				<g>
					<g>
						<path class="st0" d="M330.4,362.7c0,0,2.6-7.2,8-8.8l0,0c1.3-0.4,2.6-0.4,3.8-0.2l0,0c4.1,0.6,7.7,3.4,7.7,3.4l0,0l0,0l0,0
							c0,0-2.6,7.2-8,8.8l0,0l0,0l0-0.1c2.7-0.8,4.7-3,6-4.9l0,0c1.2-1.8,1.9-3.5,2-3.8l0,0c-0.4-0.3-3.7-2.8-7.6-3.3l0,0
							c-1.2-0.2-2.5-0.2-3.8,0.2l0,0c-2.7,0.8-4.7,3-6,4.9l0,0c-1.2,1.8-1.9,3.5-2,3.8l0,0c0.4,0.3,3.7,2.8,7.6,3.3l0,0
							c1.2,0.2,2.5,0.2,3.8-0.2l0,0l0,0.1l0,0c-1.3,0.4-2.6,0.4-3.8,0.2l0,0C334,365.5,330.4,362.8,330.4,362.7L330.4,362.7
							L330.4,362.7L330.4,362.7L330.4,362.7z"/>
					</g>
				</g>
			</g>
			<g>
				<g>
					<path class="st0" d="M517.8,299c4.4,0.2,7.8,5.2,7.8,5.2s-3.8,4.7-8.2,4.5c-4.4-0.2-7.8-5.2-7.8-5.2S513.4,298.8,517.8,299z"/>
				</g>
				<g>
					<path class="st0" d="M492.3,243.8c4.4,0.2,7.8,5.2,7.8,5.2s-3.8,4.7-8.2,4.5c-4.4-0.2-7.8-5.2-7.8-5.2S487.9,243.6,492.3,243.8
						z"/>
				</g>
				<g>
					<path class="st6" d="M479.3,218.7c6-9.9,21.8-11.2,21.8-11.2s6.1,14.7,0.1,24.5c-6,9.9-21.8,11.2-21.8,11.2
						S473.3,228.6,479.3,218.7z"/>
				</g>
				<g>
					<path class="st0" d="M528.7,316.9c3,3.2,2,9.2,2,9.2s-6,0.8-9-2.4c-3-3.2-2-9.2-2-9.2S525.6,313.7,528.7,316.9z"/>
				</g>
				<g>
					<path class="st0" d="M542.4,309.3c1.5-1,3.8-0.1,3.8-0.1s-0.2,2.5-1.7,3.4c-1.5,1-3.8,0.1-3.8,0.1S540.9,310.3,542.4,309.3z"/>
				</g>
				<g>
					<path class="st0" d="M518.4,221c1.7,0.7,2.3,3.1,2.3,3.1s-2.1,1.3-3.7,0.6c-1.7-0.7-2.3-3.1-2.3-3.1S516.8,220.3,518.4,221z"/>
				</g>
				<g>
					<path class="st7" d="M505.8,258.9c5.4-0.7,10.5,4.7,10.5,4.7s-3.6,6.5-8.9,7.3c-5.4,0.7-10.5-4.7-10.5-4.7
						S500.4,259.6,505.8,258.9z"/>
				</g>
				<g>
					<g>
						<path class="st0" d="M519.8,340.8c0,0-6.9,3.5-11.9,1l0,0c-1.2-0.6-2.1-1.5-2.9-2.5l0,0c-2.6-3.2-3.3-7.7-3.3-7.7l0,0l0,0l0,0
							c0,0,6.9-3.5,11.9-1l0,0l0,0l0,0c-2.5-1.3-5.4-1-7.7-0.5l0,0c-2.1,0.5-3.7,1.3-4,1.4l0,0c0.1,0.4,0.9,4.6,3.3,7.6l0,0
							c0.8,1,1.7,1.8,2.9,2.4l0,0c2.5,1.3,5.4,1,7.7,0.5l0,0C517.8,341.6,519.4,340.8,519.8,340.8L519.8,340.8
							c-0.2-0.5-0.9-4.6-3.4-7.7l0,0c-0.8-1-1.7-1.8-2.9-2.4l0,0l0,0l0,0c1.2,0.6,2.1,1.5,2.9,2.5l0,0
							C519.1,336.3,519.8,340.7,519.8,340.8L519.8,340.8L519.8,340.8L519.8,340.8L519.8,340.8z"/>
					</g>
				</g>
				<g>
					<g>
						<path class="st0" d="M514.9,237.5c0,0-2.6,7.2-8,8.8l0,0c-1.3,0.4-2.6,0.4-3.8,0.2l0,0c-4.1-0.6-7.7-3.4-7.7-3.4l0,0l0,0l0,0
							c0,0,2.6-7.2,8-8.8l0,0l0,0l0,0.1c-2.7,0.8-4.7,3-6,4.9l0,0c-1.2,1.8-1.9,3.5-2,3.8l0,0c0.4,0.3,3.7,2.8,7.6,3.3l0,0
							c1.2,0.2,2.5,0.2,3.8-0.2l0,0c2.7-0.8,4.7-3,6-4.9l0,0c1.2-1.8,1.9-3.5,2-3.8l0,0c-0.4-0.3-3.7-2.8-7.6-3.3l0,0
							c-1.2-0.2-2.5-0.2-3.8,0.2l0,0l0-0.1l0,0c1.3-0.4,2.6-0.4,3.8-0.2l0,0C511.4,234.7,514.9,237.4,514.9,237.5L514.9,237.5
							L514.9,237.5L514.9,237.5L514.9,237.5z"/>
					</g>
				</g>
			</g>
			<g>
				<g>
					<path class="st0" d="M376.9,216.6c-1.9-4,1-9.3,1-9.3s6,1.1,7.9,5.1c1.9,4-1,9.3-1,9.3S378.8,220.6,376.9,216.6z"/>
				</g>
				<g>
					<path class="st7" d="M340.2,265.1c-1.9-4,1-9.3,1-9.3s6,1.1,7.9,5.1c1.9,4-1,9.3-1,9.3S342.1,269.1,340.2,265.1z"/>
				</g>
				<g>
					<path class="st6" d="M326.3,279.6c-10.6-0.6-18.6-12.9-18.6-12.9s9.3-11.3,20-10.7c10.6,0.6,18.6,12.9,18.6,12.9
						S336.9,280.2,326.3,279.6z"/>
				</g>
				<g>
					<path class="st7" d="M387.6,198.6c1.4-4.2,7.1-6,7.1-6s3.5,4.9,2.1,9.1c-1.4,4.2-7.1,6-7.1,6S386.2,202.8,387.6,198.6z"/>
				</g>
				<g>
					<path class="st0" d="M374.4,190.1c-1.6-0.9-1.9-3.3-1.9-3.3s2.2-1,3.8-0.2c1.6,0.9,1.9,3.3,1.9,3.3S376,190.9,374.4,190.1z"/>
				</g>
				<g>
					<path class="st0" d="M307.8,252.8c-0.2-1.8,1.6-3.4,1.6-3.4s2.1,1.2,2.3,3c0.2,1.8-1.6,3.4-1.6,3.4S308,254.6,307.8,252.8z"/>
				</g>
				<g>
					<path class="st7" d="M347.2,246.1c-3.2-4.4-0.8-11.5-0.8-11.5s7.5,0.1,10.6,4.5c3.2,4.4,0.8,11.5,0.8,11.5
						S350.4,250.5,347.2,246.1z"/>
				</g>
				<g>
					<g>
						<path class="st0" d="M412.9,195.2c0,0,6.3,4.4,6.4,10l0,0c0,1.3-0.3,2.6-0.8,3.8l0,0c-1.6,3.8-5.2,6.5-5.2,6.5l0,0l0,0l0,0
							c0,0-6.3-4.4-6.4-10l0,0l0.1,0l0.1,0c0.1,2.8,1.7,5.3,3.2,7.1l0,0c1.5,1.6,2.9,2.7,3.1,2.9l0,0c0.3-0.3,3.6-2.9,5.2-6.5l0,0
							c0.5-1.2,0.8-2.4,0.8-3.7l0,0c-0.1-2.8-1.7-5.3-3.2-7.1l0,0c-1.5-1.6-2.9-2.7-3.1-2.9l0,0c-0.3,0.3-3.6,2.9-5.2,6.5l0,0
							c-0.5,1.2-0.8,2.4-0.8,3.7l0,0l-0.1,0l-0.1,0c0-1.3,0.3-2.6,0.8-3.8l0,0C409.2,198,412.8,195.2,412.9,195.2L412.9,195.2
							L412.9,195.2L412.9,195.2L412.9,195.2z"/>
					</g>
				</g>
				<g>
					<g>
						<path class="st0" d="M324,248.1c0,0,7.6-1.1,11.5,2.9l0,0c0.9,0.9,1.6,2.1,2,3.3l0,0c1.4,3.9,0.6,8.3,0.6,8.3l0,0l0,0l0,0
							c0,0-7.6,1.1-11.5-2.9l0,0l0,0l0,0c1.9,2,4.8,2.7,7.2,2.9l0,0c2.2,0.2,4,0,4.2,0l0,0c0.1-0.4,0.7-4.6-0.6-8.2l0,0
							c-0.4-1.2-1-2.3-2-3.2l0,0c-1.9-2-4.8-2.7-7.2-2.9l0,0c-2.2-0.2-4,0-4.2,0l0,0c-0.1,0.4-0.7,4.6,0.6,8.2l0,0
							c0.4,1.2,1,2.3,2,3.2l0,0l0,0l0,0c-0.9-0.9-1.6-2.1-2-3.3l0,0C323.2,252.6,323.9,248.2,324,248.1L324,248.1L324,248.1
							L324,248.1L324,248.1z"/>
					</g>
				</g>
			</g>
			<g>
				<g>
					<path class="st0" d="M468.4,383.5c1.9,4-1,9.3-1,9.3s-6-1.1-7.9-5.1c-1.9-4,1-9.3,1-9.3S466.5,379.6,468.4,383.5z"/>
				</g>
				<g>
					<path class="st0" d="M505.1,335c1.9,4-1,9.3-1,9.3s-6-1.1-7.9-5.1c-1.9-4,1-9.3,1-9.3S503.2,331.1,505.1,335z"/>
				</g>
				<g>
					<path class="st7" d="M513.4,320.3c7.5,0.4,13.2,9.1,13.2,9.1s-6.6,8-14.1,7.6c-7.5-0.4-13.2-9.1-13.2-9.1
						S505.8,319.8,513.4,320.3z"/>
				</g>
				<g>
					<path class="st0" d="M457.7,401.6c-1.4,4.2-7.1,6-7.1,6s-3.5-4.9-2.1-9.1c1.4-4.2,7.1-6,7.1-6S459.1,397.4,457.7,401.6z"/>
				</g>
				<g>
					<path class="st0" d="M470.9,410.1c1.6,0.9,1.9,3.3,1.9,3.3s-2.2,1-3.8,0.2c-1.6-0.9-1.9-3.3-1.9-3.3S469.3,409.2,470.9,410.1z"
						/>
				</g>
				<g>
					<path class="st0" d="M537.5,347.3c0.2,1.8-1.6,3.4-1.6,3.4s-2.1-1.2-2.3-3c-0.2-1.8,1.6-3.4,1.6-3.4S537.3,345.6,537.5,347.3z"
						/>
				</g>
				<g>
					<path class="st7" d="M498.1,354.1c3.2,4.4,0.8,11.5,0.8,11.5s-7.5-0.1-10.6-4.5c-3.2-4.4-0.8-11.5-0.8-11.5
						S495,349.6,498.1,354.1z"/>
				</g>
				<g>
					<g>
						<path class="st0" d="M432.5,404.9c0,0-6.3-4.4-6.4-10l0,0c0-1.3,0.3-2.6,0.8-3.8l0,0c1.6-3.8,5.2-6.5,5.2-6.5l0,0l0,0l0,0
							c0,0,6.3,4.4,6.4,10l0,0l-0.1,0l-0.1,0c-0.1-2.8-1.7-5.3-3.2-7l0,0c-1.5-1.6-2.9-2.7-3.1-2.9l0,0c-0.3,0.3-3.6,2.9-5.2,6.5
							l0,0c-0.5,1.2-0.8,2.4-0.8,3.7l0,0c0.1,2.8,1.7,5.3,3.2,7.1l0,0c1.5,1.6,2.9,2.7,3.1,2.9l0,0c0.3-0.3,3.6-2.9,5.2-6.5l0,0
							c0.5-1.2,0.8-2.4,0.8-3.7l0,0l0.1,0l0.1,0c0,1.3-0.3,2.6-0.8,3.8l0,0C436.1,402.2,432.5,404.9,432.5,404.9L432.5,404.9
							L432.5,404.9L432.5,404.9L432.5,404.9z"/>
					</g>
				</g>
				<g>
					<g>
						<path class="st0" d="M521.3,352c0,0-7.6,1.1-11.5-2.9l0,0c-0.9-0.9-1.6-2.1-2-3.3l0,0c-1.4-3.9-0.6-8.3-0.6-8.3l0,0l0,0l0,0
							c0,0,7.6-1.1,11.5,2.9l0,0l0,0l0,0c-1.9-2-4.8-2.7-7.2-2.9l0,0c-2.2-0.2-4,0-4.2,0l0,0c-0.1,0.4-0.7,4.6,0.6,8.2l0,0
							c0.4,1.2,1.1,2.3,2,3.2l0,0c1.9,2,4.8,2.7,7.2,2.9l0,0c2.2,0.2,4,0,4.2,0l0,0c0.1-0.4,0.7-4.6-0.6-8.2l0,0
							c-0.4-1.2-1-2.3-2-3.2l0,0l0,0l0,0c0.9,0.9,1.6,2.1,2,3.3l0,0C522.1,347.5,521.4,352,521.3,352L521.3,352L521.3,352L521.3,352
							L521.3,352z"/>
					</g>
				</g>
			</g>
			<g>
				<g>
					<path class="st7" d="M339.2,345.8c-4,1.9-9.3-1-9.3-1s1.1-6,5.1-7.9c4-1.9,9.3,1,9.3,1S343.2,343.9,339.2,345.8z"/>
				</g>
				<g>
					<path class="st0" d="M387.7,382.5c-4,1.9-9.3-1-9.3-1s1.1-6,5.1-7.9c4-1.9,9.3,1,9.3,1S391.7,380.6,387.7,382.5z"/>
				</g>
				<g>
					<path class="st7" d="M402.5,390.8c-0.4,7.5-9.1,13.2-9.1,13.2s-8-6.6-7.6-14.1c0.4-7.5,9.1-13.2,9.1-13.2
						S402.9,383.3,402.5,390.8z"/>
				</g>
				<g>
					<path class="st7" d="M321.2,335.2c-4.2-1.4-6-7.1-6-7.1s4.9-3.5,9.1-2.1c4.2,1.4,6,7.1,6,7.1S325.4,336.5,321.2,335.2z"/>
				</g>
				<g>
					<path class="st0" d="M312.6,348.3c-0.9,1.6-3.3,1.9-3.3,1.9s-1-2.2-0.2-3.8c0.9-1.6,3.3-1.9,3.3-1.9S313.5,346.8,312.6,348.3z"
						/>
				</g>
				<g>
					<path class="st0" d="M375.4,414.9c-1.8,0.2-3.4-1.6-3.4-1.6s1.2-2.1,3-2.3c1.8-0.2,3.4,1.6,3.4,1.6S377.2,414.8,375.4,414.9z"
						/>
				</g>
				<g>
					<path class="st6" d="M368.4,379.8c-5.6,4-14.6,1.1-14.6,1.1s0.1-9.5,5.7-13.5c5.6-4,14.6-1.1,14.6-1.1S374,375.8,368.4,379.8z"
						/>
				</g>
				<g>
					<g>
						<path class="st0" d="M317.8,309.9c0,0,4.4-6.3,10-6.4l0,0c1.3,0,2.6,0.3,3.8,0.8l0,0c3.8,1.6,6.5,5.2,6.5,5.2l0,0l0,0l0,0
							c0,0-4.4,6.3-10,6.4l0,0l0-0.1l0-0.1c2.8-0.1,5.3-1.7,7.1-3.2l0,0c1.6-1.5,2.7-2.9,2.9-3.1l0,0c-0.3-0.3-2.9-3.6-6.5-5.2l0,0
							c-1.2-0.5-2.4-0.8-3.7-0.8l0,0c-2.8,0.1-5.3,1.7-7.1,3.2l0,0c-1.6,1.5-2.7,2.9-2.9,3.1l0,0c0.3,0.3,2.9,3.6,6.5,5.2l0,0
							c1.2,0.5,2.4,0.8,3.7,0.8l0,0l0,0.1l0,0.1c-1.3,0-2.6-0.3-3.8-0.8l0,0C320.5,313.5,317.8,310,317.8,309.9L317.8,309.9
							L317.8,309.9L317.8,309.9L317.8,309.9z"/>
					</g>
				</g>
				<g>
					<g>
						<path class="st0" d="M370.7,398.8c0,0-1.1-7.6,2.9-11.5l0,0c0.9-0.9,2.1-1.6,3.3-2l0,0c3.9-1.4,8.3-0.6,8.3-0.6l0,0l0,0l0,0
							c0,0,1.1,7.6-2.9,11.5l0,0l0,0l0,0c2-1.9,2.7-4.8,2.9-7.2l0,0c0.2-2.2,0-4,0-4.2l0,0c-0.4-0.1-4.6-0.7-8.2,0.6l0,0
							c-1.2,0.4-2.3,1.1-3.2,2l0,0c-2,1.9-2.7,4.8-2.9,7.2l0,0c-0.2,2.2,0,4,0,4.2l0,0c0.4,0.1,4.6,0.7,8.2-0.6l0,0
							c1.2-0.4,2.3-1,3.2-2l0,0l0,0l0,0c-0.9,0.9-2.1,1.6-3.3,2l0,0C375.2,399.6,370.8,398.8,370.7,398.8L370.7,398.8L370.7,398.8
							L370.7,398.8L370.7,398.8z"/>
					</g>
				</g>
			</g>
			<g>
				<g>
					<path class="st0" d="M506.1,254.3c4-1.9,9.3,1,9.3,1s-1.1,6-5.1,7.9c-4,1.9-9.3-1-9.3-1S502.1,256.2,506.1,254.3z"/>
				</g>
				<g>
					<path class="st7" d="M457.6,217.7c4-1.9,9.3,1,9.3,1s-1.1,6-5.1,7.9c-4,1.9-9.3-1-9.3-1S453.6,219.6,457.6,217.7z"/>
				</g>
				<g>
					<path class="st0" d="M442.8,209.4c0.4-7.5,9.1-13.2,9.1-13.2s8,6.6,7.6,14.1c-0.4,7.5-9.1,13.2-9.1,13.2
						S442.4,216.9,442.8,209.4z"/>
				</g>
				<g>
					<path class="st0" d="M524.1,265c4.2,1.4,6,7.1,6,7.1s-4.9,3.5-9.1,2.1c-4.2-1.4-6-7.1-6-7.1S519.9,263.6,524.1,265z"/>
				</g>
				<g>
					<path class="st0" d="M532.7,251.9c0.9-1.6,3.3-1.9,3.3-1.9s1,2.2,0.2,3.8c-0.9,1.6-3.3,1.9-3.3,1.9S531.8,253.4,532.7,251.9z"
						/>
				</g>
				<g>
					<path class="st0" d="M469.9,185.2c1.8-0.2,3.4,1.6,3.4,1.6s-1.2,2.1-3,2.3c-1.8,0.2-3.4-1.6-3.4-1.6S468.1,185.4,469.9,185.2z"
						/>
				</g>
				<g>
					<path class="st0" d="M476.6,224.6c4.4-3.2,11.5-0.8,11.5-0.8s-0.1,7.5-4.5,10.6c-4.4,3.2-11.5,0.8-11.5,0.8
						S472.2,227.8,476.6,224.6z"/>
				</g>
				<g>
					<g>
						<path class="st0" d="M527.5,290.3c0,0-4.4,6.3-10,6.4l0,0c-1.3,0-2.6-0.3-3.8-0.8l0,0c-3.8-1.6-6.5-5.2-6.5-5.2l0,0l0,0l0,0
							c0,0,4.4-6.3,10-6.4l0,0l0,0.1l0,0.1c-2.8,0.1-5.3,1.7-7.1,3.2l0,0c-1.6,1.5-2.7,2.9-2.9,3.1l0,0c0.3,0.3,2.9,3.6,6.5,5.2l0,0
							c1.2,0.5,2.4,0.8,3.7,0.8l0,0c2.8-0.1,5.3-1.7,7.1-3.2l0,0c1.6-1.5,2.7-2.9,2.9-3.1l0,0c-0.3-0.3-2.9-3.6-6.5-5.2l0,0
							c-1.2-0.5-2.4-0.8-3.7-0.8l0,0l0-0.1l0-0.1c1.3,0,2.6,0.3,3.8,0.8l0,0C524.8,286.6,527.5,290.2,527.5,290.3L527.5,290.3
							L527.5,290.3L527.5,290.3L527.5,290.3z"/>
					</g>
				</g>
				<g>
					<g>
						<path class="st0" d="M474.6,201.4c0,0,1.1,7.6-2.9,11.5l0,0c-0.9,0.9-2.1,1.6-3.3,2l0,0c-3.9,1.4-8.3,0.6-8.3,0.6l0,0l0,0l0,0
							c0,0-1.1-7.6,2.9-11.5l0,0l0,0l0,0c-2,1.9-2.7,4.8-2.9,7.2l0,0c-0.2,2.2,0,4,0,4.2l0,0c0.4,0.1,4.6,0.7,8.2-0.6l0,0
							c1.2-0.4,2.3-1.1,3.2-2l0,0c2-1.9,2.7-4.8,2.9-7.2l0,0c0.2-2.2,0-4,0-4.2l0,0c-0.4-0.1-4.6-0.7-8.2,0.6l0,0
							c-1.2,0.4-2.3,1-3.2,2l0,0l0,0l0,0c0.9-0.9,2.1-1.6,3.3-2l0,0C470.1,200.6,474.5,201.4,474.6,201.4L474.6,201.4L474.6,201.4
							L474.6,201.4L474.6,201.4z"/>
					</g>
				</g>
			</g>
		</g>
	</g>
</g>
</svg>
