<svg xmlns="http://www.w3.org/2000/svg" xmlns:xlink="http://www.w3.org/1999/xlink" viewBox="0 0 690.45 43.61"><defs><style>.cls-1{fill:#3b3b3c;}.cls-2{fill:#cccbcb;}.cls-3{fill:#989898;}.cls-4{fill:#f1f1f1;}.cls-5{fill:url(#radial-gradient);}.cls-6{fill:url(#radial-gradient-2);}.cls-7{fill:url(#radial-gradient-3);}.cls-8{fill:url(#radial-gradient-4);}.cls-9{fill:url(#radial-gradient-5);}.cls-10{fill:url(#radial-gradient-6);}.cls-11{fill:url(#radial-gradient-7);}.cls-12{fill:url(#radial-gradient-8);}.cls-13{fill:url(#radial-gradient-9);}.cls-14{fill:url(#radial-gradient-10);}.cls-15{fill:url(#radial-gradient-11);}.cls-16{fill:url(#radial-gradient-12);}.cls-17{fill:url(#radial-gradient-13);}.cls-18{fill:url(#radial-gradient-14);}.cls-19{fill:url(#radial-gradient-15);}.cls-20{fill:url(#radial-gradient-16);}.cls-21{fill:url(#radial-gradient-17);}.cls-22{fill:url(#radial-gradient-18);}.cls-23{fill:#0abab5;}.cls-24{fill:#fff;}</style><radialGradient id="radial-gradient" cx="22.95" cy="-39.21" r="8.76" gradientTransform="translate(-0.93 29.52) scale(0.48 0.48)" gradientUnits="userSpaceOnUse"><stop offset="0" stop-color="#d8d4d3"/><stop offset="1" stop-color="#a39b98"/></radialGradient><radialGradient id="radial-gradient-2" cx="22.74" cy="-44.98" r="13.58" gradientTransform="translate(-0.93 29.52) scale(0.48 0.48)" gradientUnits="userSpaceOnUse"><stop offset="0" stop-color="#ad0f0a"/><stop offset="0.14" stop-color="#cb0a0f"/><stop offset="0.26" stop-color="#e20613"/><stop offset="0.36" stop-color="#e30e18"/><stop offset="0.5" stop-color="#e52327"/><stop offset="0.67" stop-color="#e94540"/><stop offset="0.87" stop-color="#ee7561"/><stop offset="1" stop-color="#f2987a"/></radialGradient><radialGradient id="radial-gradient-3" cx="22.83" cy="-47.23" r="7.44" gradientTransform="translate(-0.93 29.52) scale(0.48 0.48)" gradientUnits="userSpaceOnUse"><stop offset="0" stop-color="#fbd8c9"/><stop offset="1" stop-color="#e20613"/></radialGradient><radialGradient id="radial-gradient-4" cx="49.08" cy="-39.21" r="8.76" xlink:href="#radial-gradient"/><radialGradient id="radial-gradient-5" cx="48.88" cy="-44.98" r="13.58" gradientTransform="translate(-0.93 29.52) scale(0.48 0.48)" gradientUnits="userSpaceOnUse"><stop offset="0" stop-color="#c29e00"/><stop offset="0.15" stop-color="#e8ba00"/><stop offset="0.26" stop-color="#ffcb00"/><stop offset="0.35" stop-color="#ffcd08"/><stop offset="0.49" stop-color="#ffd31d"/><stop offset="0.66" stop-color="#ffdc3f"/><stop offset="0.85" stop-color="#ffe96f"/><stop offset="1" stop-color="#fff49a"/></radialGradient><radialGradient id="radial-gradient-6" cx="48.96" cy="-47.23" r="7.44" gradientTransform="translate(-0.93 29.52) scale(0.48 0.48)" gradientUnits="userSpaceOnUse"><stop offset="0" stop-color="#fff3d7"/><stop offset="1" stop-color="#ffcb00"/></radialGradient><radialGradient id="radial-gradient-7" cx="75.22" cy="-39.21" r="8.76" xlink:href="#radial-gradient"/><radialGradient id="radial-gradient-8" cx="75.01" cy="-44.98" r="13.58" gradientTransform="translate(-0.93 29.52) scale(0.48 0.48)" gradientUnits="userSpaceOnUse"><stop offset="0" stop-color="#749619"/><stop offset="0.11" stop-color="#82a91c"/><stop offset="0.26" stop-color="#93c01f"/><stop offset="0.37" stop-color="#97c227"/><stop offset="0.53" stop-color="#a1c73c"/><stop offset="0.73" stop-color="#b2d05e"/><stop offset="0.95" stop-color="#c9dc8e"/><stop offset="1" stop-color="#cedf99"/></radialGradient><radialGradient id="radial-gradient-9" cx="75.1" cy="-47.23" r="7.44" gradientTransform="translate(-0.93 29.52) scale(0.48 0.48)" gradientUnits="userSpaceOnUse"><stop offset="0" stop-color="#f7f6da"/><stop offset="1" stop-color="#93c01f"/></radialGradient><radialGradient id="radial-gradient-10" cx="778.88" cy="-39.21" r="8.76" xlink:href="#radial-gradient"/><radialGradient id="radial-gradient-11" cx="778.67" cy="-44.98" r="13.58" xlink:href="#radial-gradient-2"/><radialGradient id="radial-gradient-12" cx="778.76" cy="-47.23" r="7.44" xlink:href="#radial-gradient-3"/><radialGradient id="radial-gradient-13" cx="805.01" cy="-39.21" r="8.76" xlink:href="#radial-gradient"/><radialGradient id="radial-gradient-14" cx="804.81" cy="-44.98" r="13.58" xlink:href="#radial-gradient-5"/><radialGradient id="radial-gradient-15" cx="804.89" cy="-47.23" r="7.44" xlink:href="#radial-gradient-6"/><radialGradient id="radial-gradient-16" cx="831.15" cy="-39.21" r="8.76" xlink:href="#radial-gradient"/><radialGradient id="radial-gradient-17" cx="830.94" cy="-44.98" r="13.58" xlink:href="#radial-gradient-8"/><radialGradient id="radial-gradient-18" cx="831.03" cy="-47.23" r="7.44" xlink:href="#radial-gradient-9"/></defs><title>Ресурс 6</title><g id="Слой_2" data-name="Слой 2"><g id="Слой_1-2" data-name="Слой 1"><rect class="cls-1" width="326.45" height="29.27"/><rect class="cls-2" y="20.26" width="326.45" height="23.34"/><polygon class="cls-2" points="151.11 5.8 71.38 5.8 61.67 20.26 160.82 20.26 151.11 5.8"/><path class="cls-3" d="M150.69,15.85a.5.5,0,0,1-.71,0l-3.93-3.93a.5.5,0,0,1,.71-.71l3.93,3.93A.5.5,0,0,1,150.69,15.85Z"/><path class="cls-3" d="M150.73,12.06,146.81,16a.5.5,0,0,1-.71-.71L150,11.35a.5.5,0,0,1,.71.71Z"/><path class="cls-4" d="M322.54,36.9a2.22,2.22,0,0,1-2.11,2.31H45.05a2.22,2.22,0,0,1-2.11-2.31V27a2.22,2.22,0,0,1,2.11-2.31H320.43A2.22,2.22,0,0,1,322.54,27Z"/><circle class="cls-5" cx="10.12" cy="10.65" r="4.22"/><circle class="cls-6" cx="10.12" cy="10.65" r="3.86"/><path class="cls-7" d="M10.12,6.79a3.84,3.84,0,0,0-2.63,1,3.31,3.31,0,0,0,5.26,0A3.84,3.84,0,0,0,10.12,6.79Z"/><circle class="cls-8" cx="22.7" cy="10.65" r="4.22"/><circle class="cls-9" cx="22.7" cy="10.65" r="3.86"/><path class="cls-10" d="M22.7,6.79a3.84,3.84,0,0,0-2.63,1,3.31,3.31,0,0,0,5.26,0A3.84,3.84,0,0,0,22.7,6.79Z"/><circle class="cls-11" cx="35.29" cy="10.65" r="4.22"/><circle class="cls-12" cx="35.29" cy="10.65" r="3.86"/><path class="cls-13" d="M35.29,6.79a3.84,3.84,0,0,0-2.63,1,3.31,3.31,0,0,0,5.26,0A3.84,3.84,0,0,0,35.29,6.79Z"/><path d="M53.76,31.57v.24a6.5,6.5,0,0,1-.06.73,3.57,3.57,0,1,1-7-1.27,3.58,3.58,0,0,1,3.06-2.91l0,.1.07,0-.15.82,2.45-1.22-1.9-1.84-.18,1a4.67,4.67,0,0,0-.63,9.26,4.76,4.76,0,0,0,.84.08,4.68,4.68,0,0,0,4.59-3.84,8.42,8.42,0,0,0,.07-.92v-.26Z"/><path class="cls-1" d="M67.55,27.26a4.65,4.65,0,1,0,4.65,4.65A4.66,4.66,0,0,0,67.55,27.26Zm3.53,4.65a3.53,3.53,0,1,1-3.53-3.53A3.54,3.54,0,0,1,71.08,31.92Z"/><path d="M77.2,27.79h1v2.89h0a1.73,1.73,0,0,1,1.69-.93,1.85,1.85,0,0,1,1.38.53,1.92,1.92,0,0,1,.52,1.41V35h-1V31.89a1.25,1.25,0,0,0-.33-.91,1.2,1.2,0,0,0-.89-.33,1.29,1.29,0,0,0-1,.38,1.38,1.38,0,0,0-.37,1v3h-1Z"/><path d="M84.22,28.64v1.17h1v.82h-1v2.91q0,.66.64.66l.35,0V35a2.52,2.52,0,0,1-.58.05,1.55,1.55,0,0,1-1.11-.33,1.46,1.46,0,0,1-.33-1.08v-3h-.72v-.82h.72V28.64Z"/><path d="M87.43,28.64v1.17h1v.82h-1v2.91q0,.66.64.66l.35,0V35a2.52,2.52,0,0,1-.58.05,1.55,1.55,0,0,1-1.11-.33,1.46,1.46,0,0,1-.33-1.08v-3h-.72v-.82h.72V28.64Z"/><path d="M93.58,30.48a2.91,2.91,0,0,1,.6,1.93,2.94,2.94,0,0,1-.6,1.93,1.94,1.94,0,0,1-1.57.72,1.72,1.72,0,0,1-1.65-.9h0v2.55h-1v-6.9h1v.86h0A1.59,1.59,0,0,1,91,30a2,2,0,0,1,1-.25A2,2,0,0,1,93.58,30.48Zm-.84,3.21a2.36,2.36,0,0,0,0-2.57,1.23,1.23,0,0,0-1-.48,1.21,1.21,0,0,0-1,.49,2.31,2.31,0,0,0,0,2.56,1.2,1.2,0,0,0,1,.49A1.23,1.23,0,0,0,92.74,33.7Z"/><path d="M95.32,31.39a.63.63,0,0,1,.44-1.07.62.62,0,0,1,.63.63.61.61,0,0,1-.18.45.6.6,0,0,1-.45.18A.61.61,0,0,1,95.32,31.39Zm0,3.49a.63.63,0,0,1,.44-1.07.62.62,0,0,1,.63.63.63.63,0,0,1-1.07.45Z"/><path d="M97.06,36.52l2.06-8.42H100L98,36.52Z"/><path d="M100,36.52l2.06-8.42H103L101,36.52Z"/><path d="M109,35h-1.07l-1.1-3.91h0L105.68,35h-1.07l-1.44-5.2h1l1,4.12h0l1.1-4.12h1l1.11,4.12h0l1-4.12h1Z"/><path d="M116.46,35h-1.07l-1.1-3.91h0L113.16,35H112.1l-1.44-5.2h1l1,4.12h0l1.1-4.12h1l1.11,4.12h0l1-4.12h1Z"/><path d="M123.94,35h-1.07l-1.1-3.91h0L120.64,35h-1.07l-1.44-5.2h1l1,4.12h0l1.1-4.12h1l1.11,4.12h0l1-4.12h1Z"/><path d="M125.76,34.88a.63.63,0,0,1,.44-1.07.62.62,0,0,1,.63.63.63.63,0,0,1-1.07.45Z"/><path d="M132.23,33.49a1.69,1.69,0,0,1-.73,1.14,2.53,2.53,0,0,1-1.5.44,2.32,2.32,0,0,1-1.79-.71,2.73,2.73,0,0,1-.66-1.93,2.82,2.82,0,0,1,.66-2,2.23,2.23,0,0,1,1.75-.73,2.18,2.18,0,0,1,1.7.69,2.68,2.68,0,0,1,.63,1.87v.36H128.6v.06a1.5,1.5,0,0,0,.39,1.08,1.35,1.35,0,0,0,1,.41,1.48,1.48,0,0,0,.78-.2,1,1,0,0,0,.44-.54ZM129,31a1.47,1.47,0,0,0-.42,1h2.64a1.42,1.42,0,0,0-.37-1,1.22,1.22,0,0,0-.92-.37A1.25,1.25,0,0,0,129,31Z"/><path d="M134.94,33.08,133.77,35h-1.12l1.73-2.59-1.71-2.6h1.16L135,31.7h0l1.14-1.89h1.14l-1.71,2.56L137.27,35h-1.14L135,33.08Z"/><path d="M138.14,34.64a1.42,1.42,0,0,1-.49-1.12,1.27,1.27,0,0,1,.51-1.07,2.69,2.69,0,0,1,1.47-.45l1.4-.08v-.4a.84.84,0,0,0-.29-.68,1.43,1.43,0,0,0-1.52,0,.84.84,0,0,0-.35.54h-1a1.46,1.46,0,0,1,.61-1.14,2.64,2.64,0,0,1,3,0,1.51,1.51,0,0,1,.57,1.24V35h-1v-.87h0a1.59,1.59,0,0,1-.66.67,2,2,0,0,1-1,.25A1.87,1.87,0,0,1,138.14,34.64Zm2.51-.74a1.07,1.07,0,0,0,.39-.85v-.41l-1.26.09q-1.08.07-1.08.77A.62.62,0,0,0,139,34a1.16,1.16,0,0,0,.72.2A1.44,1.44,0,0,0,140.65,33.9Z"/><path d="M143.11,29.81h1v.88h0a1.44,1.44,0,0,1,.57-.69,1.65,1.65,0,0,1,.9-.25,1.38,1.38,0,0,1,1.45,1h0a1.64,1.64,0,0,1,.64-.74,1.85,1.85,0,0,1,1-.27,1.64,1.64,0,0,1,1.23.47,1.68,1.68,0,0,1,.46,1.24V35h-1V31.72a1.11,1.11,0,0,0-.26-.79,1,1,0,0,0-.75-.28,1,1,0,0,0-.78.32,1.13,1.13,0,0,0-.31.82V35h-1V31.63a1,1,0,0,0-.27-.72,1,1,0,0,0-.73-.27,1,1,0,0,0-.79.33,1.18,1.18,0,0,0-.31.84V35h-1Z"/><path d="M155.71,30.48a2.91,2.91,0,0,1,.6,1.93,2.94,2.94,0,0,1-.6,1.93,1.94,1.94,0,0,1-1.57.72,1.72,1.72,0,0,1-1.65-.9h0v2.55h-1v-6.9h1v.86h0a1.59,1.59,0,0,1,.67-.67,2,2,0,0,1,1-.25A2,2,0,0,1,155.71,30.48Zm-.84,3.21a2.36,2.36,0,0,0,0-2.57,1.23,1.23,0,0,0-1-.48,1.21,1.21,0,0,0-1,.49,2.31,2.31,0,0,0,0,2.56,1.2,1.2,0,0,0,1,.49A1.23,1.23,0,0,0,154.87,33.7Z"/><path d="M157.18,27.79h1V35h-1Z"/><path d="M163.77,33.49a1.69,1.69,0,0,1-.73,1.14,2.53,2.53,0,0,1-1.5.44,2.32,2.32,0,0,1-1.79-.71,2.73,2.73,0,0,1-.66-1.93,2.82,2.82,0,0,1,.66-2,2.23,2.23,0,0,1,1.75-.73,2.18,2.18,0,0,1,1.7.69,2.68,2.68,0,0,1,.63,1.87v.36h-3.68v.06a1.5,1.5,0,0,0,.39,1.08,1.35,1.35,0,0,0,1,.41,1.48,1.48,0,0,0,.78-.2,1,1,0,0,0,.44-.54ZM160.56,31a1.47,1.47,0,0,0-.42,1h2.64a1.42,1.42,0,0,0-.37-1,1.22,1.22,0,0,0-.92-.37A1.25,1.25,0,0,0,160.56,31Z"/><path d="M165,34.88a.63.63,0,0,1,.44-1.07.62.62,0,0,1,.63.63.63.63,0,0,1-1.07.45Z"/><path d="M170.44,31.59a1.12,1.12,0,0,0-.39-.69,1.29,1.29,0,0,0-.85-.28,1.22,1.22,0,0,0-1,.48,2.07,2.07,0,0,0-.38,1.31,2,2,0,0,0,.39,1.32,1.23,1.23,0,0,0,1,.47,1.11,1.11,0,0,0,1.24-.94h1a1.89,1.89,0,0,1-.69,1.31,2.37,2.37,0,0,1-1.55.5,2.31,2.31,0,0,1-1.78-.71,3.16,3.16,0,0,1,0-3.89,2.28,2.28,0,0,1,1.77-.73,2.31,2.31,0,0,1,1.58.55,1.89,1.89,0,0,1,.66,1.3Z"/><path d="M172.63,34.35a3.16,3.16,0,0,1,0-3.89,2.58,2.58,0,0,1,3.58,0,3.18,3.18,0,0,1,0,3.89,2.6,2.6,0,0,1-3.58,0Zm2.83-.62a2.57,2.57,0,0,0,0-2.65,1.36,1.36,0,0,0-2.07,0,2.54,2.54,0,0,0,0,2.65,1.36,1.36,0,0,0,2.07,0Z"/><path d="M177.72,29.81h1v.88h0a1.44,1.44,0,0,1,.57-.69,1.65,1.65,0,0,1,.9-.25,1.38,1.38,0,0,1,1.45,1h0a1.64,1.64,0,0,1,.64-.74,1.85,1.85,0,0,1,1-.27,1.64,1.64,0,0,1,1.23.47,1.68,1.68,0,0,1,.46,1.24V35h-1V31.72a1.11,1.11,0,0,0-.26-.79,1,1,0,0,0-.75-.28,1,1,0,0,0-.78.32,1.13,1.13,0,0,0-.31.82V35h-1V31.63a1,1,0,0,0-.27-.72,1,1,0,0,0-.73-.27,1,1,0,0,0-.79.33,1.18,1.18,0,0,0-.31.84V35h-1Z"/><path d="M67.58,30.58a.46.46,0,0,0,.33-.13.45.45,0,0,0,0-.64.49.49,0,0,0-.65,0,.45.45,0,0,0,0,.64A.45.45,0,0,0,67.58,30.58Z"/><rect x="67.15" y="30.93" width="0.86" height="3.23"/><polygon points="27.5 26.04 26.79 26.75 31.48 31.43 25.29 31.43 25.29 32.44 31.48 32.44 26.79 37.12 27.5 37.83 33.39 31.93 27.5 26.04"/><polygon points="13.64 26.75 12.94 26.04 7.04 31.93 12.94 37.83 13.64 37.12 8.96 32.44 15.14 32.44 15.14 31.43 8.96 31.43 13.64 26.75"/><rect class="cls-1" x="364" width="326.45" height="29.27"/><rect class="cls-2" x="364" y="20.26" width="326.45" height="23.34"/><polygon class="cls-2" points="515.11 5.8 435.38 5.8 425.67 20.26 524.82 20.26 515.11 5.8"/><path class="cls-3" d="M514.69,15.85a.5.5,0,0,1-.71,0l-3.93-3.93a.5.5,0,0,1,.71-.71l3.93,3.93A.5.5,0,0,1,514.69,15.85Z"/><path class="cls-3" d="M514.73,12.06,510.81,16a.5.5,0,1,1-.71-.71L514,11.35a.5.5,0,0,1,.71.71Z"/><path class="cls-4" d="M686.54,36.9a2.22,2.22,0,0,1-2.11,2.31H409.05a2.22,2.22,0,0,1-2.11-2.31V27a2.22,2.22,0,0,1,2.11-2.31H684.43A2.22,2.22,0,0,1,686.54,27Z"/><circle class="cls-14" cx="374.12" cy="10.65" r="4.22"/><circle class="cls-15" cx="374.12" cy="10.65" r="3.86"/><path class="cls-16" d="M374.12,6.79a3.84,3.84,0,0,0-2.63,1,3.31,3.31,0,0,0,5.26,0A3.84,3.84,0,0,0,374.12,6.79Z"/><circle class="cls-17" cx="386.7" cy="10.65" r="4.22"/><circle class="cls-18" cx="386.7" cy="10.65" r="3.86"/><path class="cls-19" d="M386.7,6.79a3.84,3.84,0,0,0-2.63,1,3.31,3.31,0,0,0,5.26,0A3.84,3.84,0,0,0,386.7,6.79Z"/><circle class="cls-20" cx="399.29" cy="10.65" r="4.22"/><circle class="cls-21" cx="399.29" cy="10.65" r="3.86"/><path class="cls-22" d="M399.29,6.79a3.84,3.84,0,0,0-2.63,1,3.31,3.31,0,0,0,5.26,0A3.84,3.84,0,0,0,399.29,6.79Z"/><path d="M417.76,31.57v.24a6.5,6.5,0,0,1-.06.73,3.57,3.57,0,1,1-7-1.27,3.58,3.58,0,0,1,3.06-2.91l0,.1.07,0-.15.82,2.45-1.22-1.9-1.84-.18,1a4.67,4.67,0,0,0-.63,9.26,4.76,4.76,0,0,0,.84.08,4.68,4.68,0,0,0,4.59-3.84,8.42,8.42,0,0,0,.07-.92v-.26Z"/><path class="cls-1" d="M431.55,27.26a4.65,4.65,0,1,0,4.65,4.65A4.66,4.66,0,0,0,431.55,27.26Zm3.53,4.65a3.53,3.53,0,1,1-3.53-3.53A3.54,3.54,0,0,1,435.08,31.92Z"/><path d="M431.58,30.58a.46.46,0,0,0,.33-.13.45.45,0,0,0,0-.64.49.49,0,0,0-.65,0,.45.45,0,0,0,0,.64A.45.45,0,0,0,431.58,30.58Z"/><rect x="431.15" y="30.93" width="0.86" height="3.23"/><polygon points="391.5 26.04 390.79 26.75 395.48 31.43 389.29 31.43 389.29 32.44 395.48 32.44 390.79 37.12 391.5 37.83 397.39 31.93 391.5 26.04"/><polygon points="377.64 26.75 376.94 26.04 371.04 31.93 376.94 37.83 377.64 37.12 372.96 32.44 379.14 32.44 379.14 31.43 372.96 31.43 377.64 26.75"/><rect class="cls-23" x="441.94" y="26.64" width="56.6" height="10.56" rx="2.27" ry="2.27"/><path class="cls-24" d="M446.93,35V28.1h1l3.58,5.09h0V28.1h1V35h-1L448,29.92h0V35Z"/><path class="cls-24" d="M454.16,34.35a3.16,3.16,0,0,1,0-3.89,2.58,2.58,0,0,1,3.58,0,3.18,3.18,0,0,1,0,3.89,2.6,2.6,0,0,1-3.58,0Zm2.83-.62a2.57,2.57,0,0,0,0-2.65,1.36,1.36,0,0,0-2.07,0,2.54,2.54,0,0,0,0,2.65,1.36,1.36,0,0,0,2.07,0Z"/><path class="cls-24" d="M460.58,28.64v1.17h1v.82h-1v2.91q0,.66.64.66l.35,0V35A2.52,2.52,0,0,1,461,35a1.55,1.55,0,0,1-1.11-.33,1.46,1.46,0,0,1-.33-1.08v-3h-.72v-.82h.72V28.64Z"/><path class="cls-24" d="M465.57,33.09a1.11,1.11,0,0,0,.51.82,2,2,0,0,0,1.14.31,1.82,1.82,0,0,0,1.08-.3.91.91,0,0,0,.42-.77.82.82,0,0,0-.3-.66,2.36,2.36,0,0,0-1-.42l-.9-.21q-1.86-.45-1.86-1.86a1.77,1.77,0,0,1,.7-1.45,2.8,2.8,0,0,1,1.81-.56,2.73,2.73,0,0,1,1.78.56A1.84,1.84,0,0,1,469.7,30h-1a1.1,1.1,0,0,0-.44-.81,1.93,1.93,0,0,0-2,0,.89.89,0,0,0-.39.75.73.73,0,0,0,.29.6,2.63,2.63,0,0,0,1,.4l.76.19a3.3,3.3,0,0,1,1.54.7,1.6,1.6,0,0,1,.47,1.21,1.86,1.86,0,0,1-.72,1.54,3.07,3.07,0,0,1-1.95.57,3,3,0,0,1-1.87-.55,1.92,1.92,0,0,1-.77-1.49Z"/><path class="cls-24" d="M475.11,33.49a1.69,1.69,0,0,1-.73,1.14,2.53,2.53,0,0,1-1.5.44,2.32,2.32,0,0,1-1.79-.71,2.73,2.73,0,0,1-.66-1.93,2.82,2.82,0,0,1,.66-2,2.23,2.23,0,0,1,1.75-.73,2.18,2.18,0,0,1,1.7.69,2.68,2.68,0,0,1,.63,1.87v.36h-3.68v.06a1.5,1.5,0,0,0,.39,1.08,1.35,1.35,0,0,0,1,.41,1.48,1.48,0,0,0,.78-.2,1,1,0,0,0,.44-.54ZM471.9,31a1.47,1.47,0,0,0-.42,1h2.64a1.42,1.42,0,0,0-.37-1,1.22,1.22,0,0,0-.92-.37A1.25,1.25,0,0,0,471.9,31Z"/><path class="cls-24" d="M479.44,31.59a1.12,1.12,0,0,0-.39-.69,1.29,1.29,0,0,0-.85-.28,1.22,1.22,0,0,0-1,.48,2.07,2.07,0,0,0-.38,1.31,2,2,0,0,0,.39,1.32,1.23,1.23,0,0,0,1,.47,1.11,1.11,0,0,0,1.24-.94h1a1.89,1.89,0,0,1-.69,1.31,2.37,2.37,0,0,1-1.55.5,2.31,2.31,0,0,1-1.78-.71,3.16,3.16,0,0,1,0-3.89,2.28,2.28,0,0,1,1.77-.73,2.31,2.31,0,0,1,1.58.55,1.89,1.89,0,0,1,.66,1.3Z"/><path class="cls-24" d="M485.73,35h-1v-.89h0a1.7,1.7,0,0,1-1.68.95,1.8,1.8,0,0,1-1.35-.52,1.92,1.92,0,0,1-.51-1.41V29.81h1v3.13a1.26,1.26,0,0,0,.31.91,1.17,1.17,0,0,0,.87.31,1.23,1.23,0,0,0,.94-.37,1.37,1.37,0,0,0,.36-1v-3h1Z"/><path class="cls-24" d="M486.79,29.81h1v.88h0a1.19,1.19,0,0,1,.46-.68,1.29,1.29,0,0,1,.79-.25,1.26,1.26,0,0,1,.34,0v1a1.27,1.27,0,0,0-.45-.07,1,1,0,0,0-.81.33,1.24,1.24,0,0,0-.3.88V35h-1Z"/><path class="cls-24" d="M494.31,33.49a1.69,1.69,0,0,1-.73,1.14,2.53,2.53,0,0,1-1.5.44,2.32,2.32,0,0,1-1.79-.71,2.73,2.73,0,0,1-.66-1.93,2.82,2.82,0,0,1,.66-2,2.23,2.23,0,0,1,1.75-.73,2.18,2.18,0,0,1,1.7.69,2.68,2.68,0,0,1,.63,1.87v.36h-3.68v.06a1.5,1.5,0,0,0,.39,1.08,1.35,1.35,0,0,0,1,.41,1.48,1.48,0,0,0,.78-.2,1,1,0,0,0,.44-.54ZM491.1,31a1.47,1.47,0,0,0-.42,1h2.64a1.42,1.42,0,0,0-.37-1,1.22,1.22,0,0,0-.92-.37A1.25,1.25,0,0,0,491.1,31Z"/><path d="M508.79,27.79h1v2.89h0a1.73,1.73,0,0,1,1.69-.93,1.85,1.85,0,0,1,1.38.53,1.92,1.92,0,0,1,.52,1.41V35h-1V31.89a1.25,1.25,0,0,0-.33-.91,1.2,1.2,0,0,0-.89-.33,1.29,1.29,0,0,0-1,.38,1.38,1.38,0,0,0-.37,1v3h-1Z"/><path d="M515.81,28.64v1.17h1v.82h-1v2.91q0,.66.64.66l.35,0V35a2.52,2.52,0,0,1-.58.05,1.55,1.55,0,0,1-1.11-.33,1.46,1.46,0,0,1-.33-1.08v-3h-.72v-.82h.72V28.64Z"/><path d="M519,28.64v1.17h1v.82h-1v2.91q0,.66.64.66l.35,0V35a2.52,2.52,0,0,1-.58.05,1.55,1.55,0,0,1-1.11-.33,1.46,1.46,0,0,1-.33-1.08v-3h-.72v-.82H518V28.64Z"/><path d="M525.17,30.48a2.91,2.91,0,0,1,.6,1.93,2.94,2.94,0,0,1-.6,1.93,1.94,1.94,0,0,1-1.57.72,1.72,1.72,0,0,1-1.65-.9h0v2.55h-1v-6.9h1v.86h0a1.59,1.59,0,0,1,.67-.67,2,2,0,0,1,1-.25A2,2,0,0,1,525.17,30.48Zm-.84,3.21a2.36,2.36,0,0,0,0-2.57,1.23,1.23,0,0,0-1-.48,1.21,1.21,0,0,0-1,.49,2.31,2.31,0,0,0,0,2.56,1.2,1.2,0,0,0,1,.49A1.23,1.23,0,0,0,524.33,33.7Z"/><path d="M526.91,31.39a.63.63,0,0,1,.44-1.07.62.62,0,0,1,.63.63.61.61,0,0,1-.18.45.6.6,0,0,1-.45.18A.61.61,0,0,1,526.91,31.39Zm0,3.49a.63.63,0,0,1,.44-1.07.62.62,0,0,1,.63.63.63.63,0,0,1-1.07.45Z"/><path d="M528.65,36.52l2.06-8.42h.93l-2.09,8.42Z"/><path d="M531.64,36.52l2.06-8.42h.93l-2.09,8.42Z"/><path d="M540.57,35H539.5l-1.1-3.91h0L537.28,35h-1.07l-1.44-5.2h1l1,4.12h0l1.1-4.12h1L540,33.93h0l1-4.12h1Z"/><path d="M548.05,35H547l-1.1-3.91h0L544.75,35h-1.07l-1.44-5.2h1l1,4.12h0l1.1-4.12h1l1.11,4.12h0l1-4.12h1Z"/><path d="M555.53,35h-1.07l-1.1-3.91h0L552.23,35h-1.07l-1.44-5.2h1l1,4.12h0l1.1-4.12h1L555,33.93h0l1-4.12h1Z"/><path d="M557.35,34.88a.63.63,0,0,1,.44-1.07.62.62,0,0,1,.63.63.63.63,0,0,1-1.07.45Z"/><path d="M563.82,33.49a1.69,1.69,0,0,1-.73,1.14,2.53,2.53,0,0,1-1.5.44,2.32,2.32,0,0,1-1.79-.71,2.73,2.73,0,0,1-.66-1.93,2.82,2.82,0,0,1,.66-2,2.23,2.23,0,0,1,1.75-.73,2.18,2.18,0,0,1,1.7.69,2.68,2.68,0,0,1,.63,1.87v.36H560.2v.06a1.5,1.5,0,0,0,.39,1.08,1.35,1.35,0,0,0,1,.41,1.48,1.48,0,0,0,.78-.2,1,1,0,0,0,.44-.54ZM560.62,31a1.47,1.47,0,0,0-.42,1h2.64a1.42,1.42,0,0,0-.37-1,1.22,1.22,0,0,0-.92-.37A1.25,1.25,0,0,0,560.62,31Z"/><path d="M566.53,33.08,565.36,35h-1.12L566,32.42l-1.71-2.6h1.16l1.15,1.89h0l1.14-1.89h1.14l-1.71,2.56L568.86,35h-1.14l-1.16-1.93Z"/><path d="M569.73,34.64a1.42,1.42,0,0,1-.49-1.12,1.27,1.27,0,0,1,.51-1.07,2.69,2.69,0,0,1,1.47-.45l1.4-.08v-.4a.84.84,0,0,0-.29-.68,1.43,1.43,0,0,0-1.52,0,.84.84,0,0,0-.35.54h-1a1.46,1.46,0,0,1,.61-1.14,2.64,2.64,0,0,1,3,0,1.51,1.51,0,0,1,.57,1.24V35h-1v-.87h0a1.59,1.59,0,0,1-.66.67,2,2,0,0,1-1,.25A1.87,1.87,0,0,1,569.73,34.64Zm2.51-.74a1.07,1.07,0,0,0,.39-.85v-.41l-1.26.09q-1.08.07-1.08.77a.62.62,0,0,0,.27.53,1.16,1.16,0,0,0,.72.2A1.44,1.44,0,0,0,572.25,33.9Z"/><path d="M574.7,29.81h1v.88h0a1.44,1.44,0,0,1,.57-.69,1.65,1.65,0,0,1,.9-.25,1.38,1.38,0,0,1,1.45,1h0a1.64,1.64,0,0,1,.64-.74,1.85,1.85,0,0,1,1-.27,1.64,1.64,0,0,1,1.23.47,1.68,1.68,0,0,1,.46,1.24V35h-1V31.72a1.11,1.11,0,0,0-.26-.79,1,1,0,0,0-.75-.28,1,1,0,0,0-.78.32,1.13,1.13,0,0,0-.31.82V35h-1V31.63a1,1,0,0,0-.27-.72,1,1,0,0,0-.73-.27A1,1,0,0,0,576,31a1.18,1.18,0,0,0-.31.84V35h-1Z"/><path d="M587.3,30.48a2.91,2.91,0,0,1,.6,1.93,2.94,2.94,0,0,1-.6,1.93,1.94,1.94,0,0,1-1.57.72,1.72,1.72,0,0,1-1.65-.9h0v2.55h-1v-6.9h1v.86h0a1.59,1.59,0,0,1,.67-.67,2,2,0,0,1,1-.25A2,2,0,0,1,587.3,30.48Zm-.84,3.21a2.36,2.36,0,0,0,0-2.57,1.23,1.23,0,0,0-1-.48,1.21,1.21,0,0,0-1,.49,2.31,2.31,0,0,0,0,2.56,1.2,1.2,0,0,0,1,.49A1.23,1.23,0,0,0,586.46,33.7Z"/><path d="M588.77,27.79h1V35h-1Z"/><path d="M595.36,33.49a1.69,1.69,0,0,1-.73,1.14,2.53,2.53,0,0,1-1.5.44,2.32,2.32,0,0,1-1.79-.71,2.73,2.73,0,0,1-.66-1.93,2.82,2.82,0,0,1,.66-2,2.23,2.23,0,0,1,1.75-.73,2.18,2.18,0,0,1,1.7.69,2.68,2.68,0,0,1,.63,1.87v.36h-3.68v.06a1.5,1.5,0,0,0,.39,1.08,1.35,1.35,0,0,0,1,.41,1.48,1.48,0,0,0,.78-.2,1,1,0,0,0,.44-.54ZM592.15,31a1.47,1.47,0,0,0-.42,1h2.64a1.42,1.42,0,0,0-.37-1,1.22,1.22,0,0,0-.92-.37A1.25,1.25,0,0,0,592.15,31Z"/><path d="M596.55,34.88a.63.63,0,0,1,.44-1.07.62.62,0,0,1,.63.63.63.63,0,0,1-1.07.45Z"/><path d="M602,31.59a1.12,1.12,0,0,0-.39-.69,1.29,1.29,0,0,0-.85-.28,1.22,1.22,0,0,0-1,.48,2.07,2.07,0,0,0-.38,1.31,2,2,0,0,0,.39,1.32,1.23,1.23,0,0,0,1,.47,1.11,1.11,0,0,0,1.24-.94h1a1.89,1.89,0,0,1-.69,1.31,2.37,2.37,0,0,1-1.55.5,2.31,2.31,0,0,1-1.78-.71,3.16,3.16,0,0,1,0-3.89,2.28,2.28,0,0,1,1.77-.73,2.31,2.31,0,0,1,1.58.55,1.89,1.89,0,0,1,.66,1.3Z"/><path d="M604.22,34.35a3.16,3.16,0,0,1,0-3.89,2.58,2.58,0,0,1,3.58,0,3.18,3.18,0,0,1,0,3.89,2.6,2.6,0,0,1-3.58,0Zm2.83-.62a2.57,2.57,0,0,0,0-2.65,1.36,1.36,0,0,0-2.07,0,2.54,2.54,0,0,0,0,2.65,1.36,1.36,0,0,0,2.07,0Z"/><path d="M609.31,29.81h1v.88h0a1.44,1.44,0,0,1,.57-.69,1.65,1.65,0,0,1,.9-.25,1.38,1.38,0,0,1,1.45,1h0a1.64,1.64,0,0,1,.64-.74,1.85,1.85,0,0,1,1-.27,1.64,1.64,0,0,1,1.23.47,1.68,1.68,0,0,1,.46,1.24V35h-1V31.72a1.11,1.11,0,0,0-.26-.79,1,1,0,0,0-.75-.28,1,1,0,0,0-.78.32,1.13,1.13,0,0,0-.31.82V35h-1V31.63a1,1,0,0,0-.27-.72,1,1,0,0,0-.73-.27,1,1,0,0,0-.79.33,1.18,1.18,0,0,0-.31.84V35h-1Z"/></g></g></svg>