<?xml version="1.0" standalone="yes"?><svg xmlns="http://www.w3.org/2000/svg" viewBox="0 0 355.82 120.55" style="zoom: 1;"><defs><style>.cls-1{fill:#0abab5;}</style></defs><title>Ресурс 12</title><g id="Слой_2" data-name="Слой 2"><g id="Слой_1-2" data-name="Слой 1"><path class="cls-1" d="M0,118.87 v-97 C0,14.85 .33,.33 18.36,.33 c13.36,0 16.87,9.2 21.21,17.53 L63.44,63.79 V2 H92.49 v98.69 c0,6 .16,19.86 -16,19.86 c-10.52,0 -13.53,-6.17 -20.71,-19.86 L29,50.59 v68.28  Z "></path><path class="cls-1" d="M124.32,0 a14.94,14.94 0 0 1 15.19,15.2 a15.19,15.19 0 0 1 -30.38,0 A14.94,14.94 0 0 1 124.32,0 m13.36,118.87 H111 V37.06 h26.71  Z "></path><path class="cls-1" d="M198.6,37.06 V61.44 h-19 V79 c0,3.68 -.68,10 3,13.2 c2.5,2.17 7.18,2.33 12.69,2.33 h3.68 v24.37 h-7.35 c-11.2,0 -21.88,-.16 -30.39,-8.17 c-8.68,-8.19 -8.35,-17.37 -8.35,-28.57 V17.69 h26.71 V37.06  Z "></path><path class="cls-1" d="M209.92,118.87V37.06h23.54V49.75c3.68-12.53,14.19-13.53,21.71-13.53h1.66V61.44H253c-5.84,0-16.35.68-16.35,14.85v42.58Z"></path><path class="cls-1" d="M329.11,83.81c0-9-1.5-17.2-9.52-21.53a18.48,18.48,0,0,0-27.38,16,17.17,17.17,0,0,0,9,15,18.66,18.66,0,0,0,9.36,2.51,42.11,42.11,0,0,0,11.51-2v23.89c-5.17,1.68-9.17,2.84-14.85,2.84-20.53,0-41.74-14.53-41.74-40.9,0-17,9.68-32.57,24-39.58a49.28,49.28,0,0,1,21.87-4.68,50.11,50.11,0,0,1,17.2,2.68c14.35,5.17,27.22,19.21,27.22,43.26v37.55H329.11Z"></path></g></g></svg>